<svg version="1.1" viewBox="0.0 0.0 960.0 540.0" fill="none" stroke="none" stroke-linecap="square" stroke-miterlimit="10" xmlns:xlink="http://www.w3.org/1999/xlink" xmlns="http://www.w3.org/2000/svg"><clipPath id="g349aeb0902e_0_4.0"><path d="m0 0l960.0 0l0 540.0l-960.0 0l0 -540.0z" clip-rule="nonzero"/></clipPath><g clip-path="url(#g349aeb0902e_0_4.0)"><path fill="#ffffff" d="m0 0l960.0 0l0 540.0l-960.0 0z" fill-rule="evenodd"/><path fill="#000000" fill-opacity="0.0" d="m37.262466 28.96063l161.82677 0l0 108.15747l-161.82677 0z" fill-rule="evenodd"/><path stroke="#595959" stroke-width="1.0" stroke-linejoin="round" stroke-linecap="butt" d="m37.262466 28.96063l161.82677 0l0 108.15747l-161.82677 0z" fill-rule="evenodd"/><path fill="#000000" fill-opacity="0.0" d="m120.503944 40.461945l0 0c4.1432266 4.1348724 6.326515 9.890629 6.06958 16.001064c-0.25694275 6.1104393 -2.9330673 12.075024 -7.439659 16.581615l-15.622047 -15.590553z" fill-rule="evenodd"/><path fill="#000000" fill-opacity="0.0" d="m120.503944 40.461945l0 0c4.1432266 4.1348724 6.326515 9.890629 6.06958 16.001064c-0.25694275 6.1104393 -2.9330673 12.075024 -7.439659 16.581615" fill-rule="evenodd"/><path stroke="#d95e10" stroke-width="2.0" stroke-linejoin="round" stroke-linecap="butt" d="m120.503944 40.461945l0 0c4.1432266 4.1348724 6.326515 9.890629 6.06958 16.001064c-0.25694275 6.1104393 -2.9330673 12.075024 -7.439659 16.581615" fill-rule="evenodd"/><path fill="#000000" fill-opacity="0.0" d="m37.262466 165.85695l161.82677 0l0 108.157486l-161.82677 0z" fill-rule="evenodd"/><path stroke="#595959" stroke-width="2.0" stroke-linejoin="round" stroke-linecap="butt" d="m37.262466 165.85695l161.82677 0l0 108.157486l-161.82677 0z" fill-rule="evenodd"/><path fill="#000000" fill-opacity="0.0" d="m227.50919 28.976377l161.82678 0l0 108.157486l-161.82678 0z" fill-rule="evenodd"/><path stroke="#595959" stroke-width="2.0" stroke-linejoin="round" stroke-linecap="butt" d="m227.50919 28.976377l161.82678 0l0 108.157486l-161.82678 0z" fill-rule="evenodd"/><path fill="#000000" fill-opacity="0.0" d="m227.50919 165.55774l161.82678 0l0 108.15747l-161.82678 0z" fill-rule="evenodd"/><path stroke="#595959" stroke-width="1.0" stroke-linejoin="round" stroke-linecap="butt" d="m227.50919 165.55774l161.82678 0l0 108.15747l-161.82678 0z" fill-rule="evenodd"/><path fill="#000000" fill-opacity="0.0" d="m889.4969 489.57657l57.606323 0l0 41.322845l-57.606323 0z" fill-rule="evenodd"/><path fill="#595959" d="m928.247 515.03796l-1.171875 0l0 -7.4687195q-0.421875 0.40625 -1.109375 0.8125q-0.6875 0.40625 -1.234375 0.609375l0 -1.140625q0.984375 -0.453125 1.71875 -1.109375q0.734375 -0.671875 1.03125 -1.28125l0.765625 0l0 9.5780945zm6.7562256 0l0 -2.28125l-4.140625 0l0 -1.0780945l4.34375 -6.1875l0.96875 0l0 6.1875l1.28125 0l0 1.0780945l-1.28125 0l0 2.28125l-1.171875 0zm0 -3.3593445l0 -4.296875l-2.984375 4.296875l2.984375 0z" fill-rule="nonzero"/><path fill="#000000" fill-opacity="0.0" d="m121.344246 41.440975l0 0c2.0006104 1.9964333 3.1179047 4.712471 3.1060944 7.550621c-0.011817932 2.83815 -1.1517715 5.565922 -3.1690826 7.5832367l-7.543312 -7.5275574z" fill-rule="evenodd"/><path fill="#000000" fill-opacity="0.0" d="m121.344246 41.440975l0 0c2.0006104 1.9964333 3.1179047 4.712471 3.1060944 7.550621c-0.011817932 2.83815 -1.1517715 5.565922 -3.1690826 7.5832367" fill-rule="evenodd"/><path stroke="#d95e10" stroke-width="2.0" stroke-linejoin="round" stroke-linecap="butt" d="m121.344246 41.440975l0 0c2.0006104 1.9964333 3.1179047 4.712471 3.1060944 7.550621c-0.011817932 2.83815 -1.1517715 5.565922 -3.1690826 7.5832367" fill-rule="evenodd"/><path fill="#000000" fill-opacity="0.0" d="m111.0182 105.37006l0 0c-3.571022 -3.571022 -5.5108414 -8.480736 -5.392708 -13.649063c0.118133545 -5.1683273 2.2845383 -10.171898 6.022629 -13.909988l13.464569 13.464561z" fill-rule="evenodd"/><path fill="#000000" fill-opacity="0.0" d="m111.0182 105.37006l0 0c-3.571022 -3.571022 -5.5108414 -8.480736 -5.392708 -13.649063c0.118133545 -5.1683273 2.2845383 -10.171898 6.022629 -13.909988" fill-rule="evenodd"/><path stroke="#666666" stroke-width="1.0" stroke-linejoin="round" stroke-linecap="butt" d="m111.0182 105.37006l0 0c-3.571022 -3.571022 -5.5108414 -8.480736 -5.392708 -13.649063c0.118133545 -5.1683273 2.2845383 -10.171898 6.022629 -13.909988" fill-rule="evenodd"/><path fill="#000000" fill-opacity="0.0" d="m109.98448 122.77944l0 0c-3.8049164 -3.804924 -5.509453 -9.398537 -4.738632 -15.5503235c0.770813 -6.151779 3.9538498 -12.357811 8.848869 -17.25283l14.346458 14.346458z" fill-rule="evenodd"/><path fill="#000000" fill-opacity="0.0" d="m109.98448 122.77944l0 0c-3.8049164 -3.804924 -5.509453 -9.398537 -4.738632 -15.5503235c0.770813 -6.151779 3.9538498 -12.357811 8.848869 -17.25283" fill-rule="evenodd"/><path stroke="#666666" stroke-width="1.0" stroke-linejoin="round" stroke-linecap="butt" d="m109.98448 122.77944l0 0c-3.8049164 -3.804924 -5.509453 -9.398537 -4.738632 -15.5503235c0.770813 -6.151779 3.9538498 -12.357811 8.848869 -17.25283" fill-rule="evenodd"/><path fill="#f3f3f3" d="m110.430435 123.87613l0 0c0 -3.0440903 2.46772 -5.5118103 5.5118103 -5.5118103l0 0c1.4618225 0 2.8637695 0.58071136 3.897438 1.6143723c1.0336609 1.0336685 1.6143723 2.4356155 1.6143723 3.897438l0 0c0 3.0440903 -2.46772 5.5118103 -5.5118103 5.5118103l0 0c-3.0440903 0 -5.5118103 -2.46772 -5.5118103 -5.5118103z" fill-rule="evenodd"/><path stroke="#434343" stroke-width="1.0" stroke-linejoin="round" stroke-linecap="butt" d="m110.430435 123.87613l0 0c0 -3.0440903 2.46772 -5.5118103 5.5118103 -5.5118103l0 0c1.4618225 0 2.8637695 0.58071136 3.897438 1.6143723c1.0336609 1.0336685 1.6143723 2.4356155 1.6143723 3.897438l0 0c0 3.0440903 -2.46772 5.5118103 -5.5118103 5.5118103l0 0c-3.0440903 0 -5.5118103 -2.46772 -5.5118103 -5.5118103z" fill-rule="evenodd"/><path fill="#f3f3f3" d="m110.430435 107.89533l0 0c0 -3.0440903 2.46772 -5.5118103 5.5118103 -5.5118103l0 0c1.4618225 0 2.8637695 0.58071136 3.897438 1.6143723c1.0336609 1.0336685 1.6143723 2.4356155 1.6143723 3.897438l0 0c0 3.0440903 -2.46772 5.5118103 -5.5118103 5.5118103l0 0c-3.0440903 0 -5.5118103 -2.46772 -5.5118103 -5.5118103z" fill-rule="evenodd"/><path stroke="#434343" stroke-width="1.0" stroke-linejoin="round" stroke-linecap="butt" d="m110.430435 107.89533l0 0c0 -3.0440903 2.46772 -5.5118103 5.5118103 -5.5118103l0 0c1.4618225 0 2.8637695 0.58071136 3.897438 1.6143723c1.0336609 1.0336685 1.6143723 2.4356155 1.6143723 3.897438l0 0c0 3.0440903 -2.46772 5.5118103 -5.5118103 5.5118103l0 0c-3.0440903 0 -5.5118103 -2.46772 -5.5118103 -5.5118103z" fill-rule="evenodd"/><path fill="#eeeeee" d="m110.430435 90.99386l0 0c0 -3.0440903 2.46772 -5.5118103 5.5118103 -5.5118103l0 0c1.4618225 0 2.8637695 0.58070374 3.897438 1.6143723c1.0336609 1.0336609 1.6143723 2.4356155 1.6143723 3.897438l0 0c0 3.0440903 -2.46772 5.5118103 -5.5118103 5.5118103l0 0c-3.0440903 0 -5.5118103 -2.46772 -5.5118103 -5.5118103z" fill-rule="evenodd"/><path stroke="#434343" stroke-width="1.0" stroke-linejoin="round" stroke-linecap="butt" d="m110.430435 90.99386l0 0c0 -3.0440903 2.46772 -5.5118103 5.5118103 -5.5118103l0 0c1.4618225 0 2.8637695 0.58070374 3.897438 1.6143723c1.0336609 1.0336609 1.6143723 2.4356155 1.6143723 3.897438l0 0c0 3.0440903 -2.46772 5.5118103 -5.5118103 5.5118103l0 0c-3.0440903 0 -5.5118103 -2.46772 -5.5118103 -5.5118103z" fill-rule="evenodd"/><path fill="#fce5cd" d="m110.430435 74.092384l0 0c0 -3.0440903 2.46772 -5.5118103 5.5118103 -5.5118103l0 0c1.4618225 0 2.8637695 0.58070374 3.897438 1.6143723c1.0336609 1.0336609 1.6143723 2.4356155 1.6143723 3.897438l0 0c0 3.0440903 -2.46772 5.5118103 -5.5118103 5.5118103l0 0c-3.0440903 0 -5.5118103 -2.46772 -5.5118103 -5.5118103z" fill-rule="evenodd"/><path stroke="#434343" stroke-width="1.0" stroke-linejoin="round" stroke-linecap="butt" d="m110.430435 74.092384l0 0c0 -3.0440903 2.46772 -5.5118103 5.5118103 -5.5118103l0 0c1.4618225 0 2.8637695 0.58070374 3.897438 1.6143723c1.0336609 1.0336609 1.6143723 2.4356155 1.6143723 3.897438l0 0c0 3.0440903 -2.46772 5.5118103 -5.5118103 5.5118103l0 0c-3.0440903 0 -5.5118103 -2.46772 -5.5118103 -5.5118103z" fill-rule="evenodd"/><path fill="#fce5cd" d="m110.430435 57.190907l0 0c0 -3.0440903 2.46772 -5.5118103 5.5118103 -5.5118103l0 0c1.4618225 0 2.8637695 0.58070755 3.897438 1.6143723c1.0336609 1.0336647 1.6143723 2.4356155 1.6143723 3.897438l0 0c0 3.0440903 -2.46772 5.5118103 -5.5118103 5.5118103l0 0c-3.0440903 0 -5.5118103 -2.46772 -5.5118103 -5.5118103z" fill-rule="evenodd"/><path stroke="#434343" stroke-width="1.0" stroke-linejoin="round" stroke-linecap="butt" d="m110.430435 57.190907l0 0c0 -3.0440903 2.46772 -5.5118103 5.5118103 -5.5118103l0 0c1.4618225 0 2.8637695 0.58070755 3.897438 1.6143723c1.0336609 1.0336647 1.6143723 2.4356155 1.6143723 3.897438l0 0c0 3.0440903 -2.46772 5.5118103 -5.5118103 5.5118103l0 0c-3.0440903 0 -5.5118103 -2.46772 -5.5118103 -5.5118103z" fill-rule="evenodd"/><path fill="#fce5cd" d="m110.430435 40.28943l0 0c0 -3.0440865 2.46772 -5.5118103 5.5118103 -5.5118103l0 0c1.4618225 0 2.8637695 0.58070755 3.897438 1.6143723c1.0336609 1.0336647 1.6143723 2.4356155 1.6143723 3.897438l0 0c0 3.0440903 -2.46772 5.511814 -5.5118103 5.511814l0 0c-3.0440903 0 -5.5118103 -2.4677238 -5.5118103 -5.511814z" fill-rule="evenodd"/><path stroke="#434343" stroke-width="1.0" stroke-linejoin="round" stroke-linecap="butt" d="m110.430435 40.28943l0 0c0 -3.0440865 2.46772 -5.5118103 5.5118103 -5.5118103l0 0c1.4618225 0 2.8637695 0.58070755 3.897438 1.6143723c1.0336609 1.0336647 1.6143723 2.4356155 1.6143723 3.897438l0 0c0 3.0440903 -2.46772 5.511814 -5.5118103 5.511814l0 0c-3.0440903 0 -5.5118103 -2.4677238 -5.5118103 -5.511814z" fill-rule="evenodd"/><path fill="#efefef" d="m45.85827 38.590443l38.551178 0l0 5.6377945l-38.551178 0z" fill-rule="evenodd"/><path fill="#000000" fill-opacity="0.0" d="m46.34145 38.590744l0 5.6377945" fill-rule="evenodd"/><path stroke="#000000" stroke-width="1.0" stroke-linejoin="round" stroke-linecap="butt" d="m46.34145 38.590744l0 5.6377945" fill-rule="evenodd"/><path fill="#000000" fill-opacity="0.0" d="m48.331688 38.590744l0 5.6377945" fill-rule="evenodd"/><path stroke="#000000" stroke-width="1.0" stroke-linejoin="round" stroke-linecap="butt" d="m48.331688 38.590744l0 5.6377945" fill-rule="evenodd"/><path fill="#000000" fill-opacity="0.0" d="m57.925117 38.590744l0 5.6377945" fill-rule="evenodd"/><path stroke="#000000" stroke-width="1.0" stroke-linejoin="round" stroke-linecap="butt" d="m57.925117 38.590744l0 5.6377945" fill-rule="evenodd"/><path fill="#000000" fill-opacity="0.0" d="m82.02464 38.590744l0 5.6377945" fill-rule="evenodd"/><path stroke="#000000" stroke-width="1.0" stroke-linejoin="round" stroke-linecap="butt" d="m82.02464 38.590744l0 5.6377945" fill-rule="evenodd"/><path fill="#000000" fill-opacity="0.0" d="m65.17794 38.590744l0 5.6377945" fill-rule="evenodd"/><path stroke="#000000" stroke-width="1.0" stroke-linejoin="round" stroke-linecap="butt" d="m65.17794 38.590744l0 5.6377945" fill-rule="evenodd"/><path fill="#000000" fill-opacity="0.0" d="m69.57828 38.590744l0 5.6377945" fill-rule="evenodd"/><path stroke="#000000" stroke-width="1.0" stroke-linejoin="round" stroke-linecap="butt" d="m69.57828 38.590744l0 5.6377945" fill-rule="evenodd"/><path fill="#000000" fill-opacity="0.0" d="m77.78592 38.590744l0 5.6377945" fill-rule="evenodd"/><path stroke="#000000" stroke-width="1.0" stroke-linejoin="round" stroke-linecap="butt" d="m77.78592 38.590744l0 5.6377945" fill-rule="evenodd"/><path fill="#000000" fill-opacity="0.0" d="m83.88476 38.590744l0 5.6377945" fill-rule="evenodd"/><path stroke="#000000" stroke-width="1.0" stroke-linejoin="round" stroke-linecap="butt" d="m83.88476 38.590744l0 5.6377945" fill-rule="evenodd"/><path fill="#000000" fill-opacity="0.0" d="m61.624836 38.590744l0 5.6377945" fill-rule="evenodd"/><path stroke="#000000" stroke-width="1.0" stroke-linejoin="round" stroke-linecap="butt" d="m61.624836 38.590744l0 5.6377945" fill-rule="evenodd"/><path fill="#000000" fill-opacity="0.0" d="m91.173225 41.267715l-0.31495667 0.28346634" fill-rule="evenodd"/><path stroke="#d95e10" stroke-width="1.0" stroke-linejoin="round" stroke-linecap="butt" d="m91.173225 41.267715l-0.31495667 0.28346634" fill-rule="evenodd"/><path stroke="#d95e10" stroke-width="1.0" stroke-linecap="butt" d="m90.85827 43.202915l4.5380936 -1.6517334l-4.5380936 -1.6517334z" fill-rule="evenodd"/><path fill="#efefef" d="m45.85827 55.6062l38.551178 0l0 5.6377945l-38.551178 0z" fill-rule="evenodd"/><path fill="#000000" fill-opacity="0.0" d="m46.895252 55.606503l0 5.6377945" fill-rule="evenodd"/><path stroke="#000000" stroke-width="1.0" stroke-linejoin="round" stroke-linecap="butt" d="m46.895252 55.606503l0 5.6377945" fill-rule="evenodd"/><path fill="#000000" fill-opacity="0.0" d="m50.525913 55.606503l0 5.6377945" fill-rule="evenodd"/><path stroke="#000000" stroke-width="1.0" stroke-linejoin="round" stroke-linecap="butt" d="m50.525913 55.606503l0 5.6377945" fill-rule="evenodd"/><path fill="#000000" fill-opacity="0.0" d="m56.74139 55.606503l0 5.6377945" fill-rule="evenodd"/><path stroke="#000000" stroke-width="1.0" stroke-linejoin="round" stroke-linecap="butt" d="m56.74139 55.606503l0 5.6377945" fill-rule="evenodd"/><path fill="#000000" fill-opacity="0.0" d="m82.02464 55.606503l0 5.6377945" fill-rule="evenodd"/><path stroke="#000000" stroke-width="1.0" stroke-linejoin="round" stroke-linecap="butt" d="m82.02464 55.606503l0 5.6377945" fill-rule="evenodd"/><path fill="#000000" fill-opacity="0.0" d="m71.750114 55.606503l0 5.6377945" fill-rule="evenodd"/><path stroke="#000000" stroke-width="1.0" stroke-linejoin="round" stroke-linecap="butt" d="m71.750114 55.606503l0 5.6377945" fill-rule="evenodd"/><path fill="#000000" fill-opacity="0.0" d="m74.048096 55.606503l0 5.6377945" fill-rule="evenodd"/><path stroke="#000000" stroke-width="1.0" stroke-linejoin="round" stroke-linecap="butt" d="m74.048096 55.606503l0 5.6377945" fill-rule="evenodd"/><path fill="#000000" fill-opacity="0.0" d="m62.956524 55.606503l0 5.6377945" fill-rule="evenodd"/><path stroke="#000000" stroke-width="1.0" stroke-linejoin="round" stroke-linecap="butt" d="m62.956524 55.606503l0 5.6377945" fill-rule="evenodd"/><path fill="#000000" fill-opacity="0.0" d="m77.740395 55.606503l0 5.6377945" fill-rule="evenodd"/><path stroke="#000000" stroke-width="1.0" stroke-linejoin="round" stroke-linecap="butt" d="m77.740395 55.606503l0 5.6377945" fill-rule="evenodd"/><path fill="#000000" fill-opacity="0.0" d="m59.322998 55.606503l0 5.6377945" fill-rule="evenodd"/><path stroke="#000000" stroke-width="1.0" stroke-linejoin="round" stroke-linecap="butt" d="m59.322998 55.606503l0 5.6377945" fill-rule="evenodd"/><path fill="#000000" fill-opacity="0.0" d="m91.66929 58.283466l-0.31495667 0.28346252" fill-rule="evenodd"/><path stroke="#d95e10" stroke-width="1.0" stroke-linejoin="round" stroke-linecap="butt" d="m91.66929 58.283466l-0.31495667 0.28346252" fill-rule="evenodd"/><path stroke="#d95e10" stroke-width="1.0" stroke-linecap="butt" d="m91.35433 60.218662l4.5380936 -1.6517334l-4.5380936 -1.6517334z" fill-rule="evenodd"/><path fill="#efefef" d="m45.732285 71.801704l38.551178 0l0 5.6377945l-38.551178 0z" fill-rule="evenodd"/><path fill="#000000" fill-opacity="0.0" d="m49.328323 71.80201l0 5.6377945" fill-rule="evenodd"/><path stroke="#000000" stroke-width="1.0" stroke-linejoin="round" stroke-linecap="butt" d="m49.328323 71.80201l0 5.6377945" fill-rule="evenodd"/><path fill="#000000" fill-opacity="0.0" d="m51.73851 71.80201l0 5.6377945" fill-rule="evenodd"/><path stroke="#000000" stroke-width="1.0" stroke-linejoin="round" stroke-linecap="butt" d="m51.73851 71.80201l0 5.6377945" fill-rule="evenodd"/><path fill="#000000" fill-opacity="0.0" d="m53.266327 71.80201l0 5.6377945" fill-rule="evenodd"/><path stroke="#000000" stroke-width="1.0" stroke-linejoin="round" stroke-linecap="butt" d="m53.266327 71.80201l0 5.6377945" fill-rule="evenodd"/><path fill="#000000" fill-opacity="0.0" d="m75.3396 71.80201l0 5.6377945" fill-rule="evenodd"/><path stroke="#000000" stroke-width="1.0" stroke-linejoin="round" stroke-linecap="butt" d="m75.3396 71.80201l0 5.6377945" fill-rule="evenodd"/><path fill="#000000" fill-opacity="0.0" d="m65.00733 71.80201l0 5.6377945" fill-rule="evenodd"/><path stroke="#000000" stroke-width="1.0" stroke-linejoin="round" stroke-linecap="butt" d="m65.00733 71.80201l0 5.6377945" fill-rule="evenodd"/><path fill="#000000" fill-opacity="0.0" d="m67.05859 71.80201l0 5.6377945" fill-rule="evenodd"/><path stroke="#000000" stroke-width="1.0" stroke-linejoin="round" stroke-linecap="butt" d="m67.05859 71.80201l0 5.6377945" fill-rule="evenodd"/><path fill="#000000" fill-opacity="0.0" d="m60.610065 71.80201l0 5.6377945" fill-rule="evenodd"/><path stroke="#000000" stroke-width="1.0" stroke-linejoin="round" stroke-linecap="butt" d="m60.610065 71.80201l0 5.6377945" fill-rule="evenodd"/><path fill="#000000" fill-opacity="0.0" d="m77.61441 71.80201l0 5.6377945" fill-rule="evenodd"/><path stroke="#000000" stroke-width="1.0" stroke-linejoin="round" stroke-linecap="butt" d="m77.61441 71.80201l0 5.6377945" fill-rule="evenodd"/><path fill="#000000" fill-opacity="0.0" d="m59.197014 71.80201l0 5.6377945" fill-rule="evenodd"/><path stroke="#000000" stroke-width="1.0" stroke-linejoin="round" stroke-linecap="butt" d="m59.197014 71.80201l0 5.6377945" fill-rule="evenodd"/><path fill="#000000" fill-opacity="0.0" d="m91.79527 74.479004l-0.31495667 0.28346252" fill-rule="evenodd"/><path stroke="#d95e10" stroke-width="1.0" stroke-linejoin="round" stroke-linecap="butt" d="m91.79527 74.479004l-0.31495667 0.28346252" fill-rule="evenodd"/><path stroke="#d95e10" stroke-width="1.0" stroke-linecap="butt" d="m91.480316 76.4142l4.5380936 -1.6517334l-4.5380936 -1.6517334z" fill-rule="evenodd"/><path fill="#000000" fill-opacity="0.0" d="m135.979 41.67323l-0.31495667 0.28346252" fill-rule="evenodd"/><path stroke="#d95e10" stroke-width="1.0" stroke-linejoin="round" stroke-linecap="butt" d="m135.979 41.67323l-0.31495667 0.28346252" fill-rule="evenodd"/><path stroke="#d95e10" stroke-width="1.0" stroke-linecap="butt" d="m135.66405 43.608425l4.538086 -1.6517334l-4.538086 -1.6517296z" fill-rule="evenodd"/><path fill="#000000" fill-opacity="0.0" d="m136.47507 58.688976l-0.31495667 0.28346634" fill-rule="evenodd"/><path stroke="#d95e10" stroke-width="1.0" stroke-linejoin="round" stroke-linecap="butt" d="m136.47507 58.688976l-0.31495667 0.28346634" fill-rule="evenodd"/><path stroke="#d95e10" stroke-width="1.0" stroke-linecap="butt" d="m136.16011 60.624172l4.538086 -1.6517296l-4.538086 -1.6517334z" fill-rule="evenodd"/><path fill="#000000" fill-opacity="0.0" d="m136.60104 74.884514l-0.31495667 0.28346252" fill-rule="evenodd"/><path stroke="#d95e10" stroke-width="1.0" stroke-linejoin="round" stroke-linecap="butt" d="m136.60104 74.884514l-0.31495667 0.28346252" fill-rule="evenodd"/><path stroke="#d95e10" stroke-width="1.0" stroke-linecap="butt" d="m136.28609 76.81971l4.538101 -1.6517334l-4.538101 -1.6517334z" fill-rule="evenodd"/><path fill="#efefef" d="m153.28346 38.995956l38.551178 0l0 5.6377945l-38.551178 0z" fill-rule="evenodd"/><path fill="#000000" fill-opacity="0.0" d="m157.01074 38.996258l0 5.6377945" fill-rule="evenodd"/><path stroke="#000000" stroke-width="1.0" stroke-linejoin="round" stroke-linecap="butt" d="m157.01074 38.996258l0 5.6377945" fill-rule="evenodd"/><path fill="#000000" fill-opacity="0.0" d="m165.35031 38.996258l0 5.6377945" fill-rule="evenodd"/><path stroke="#000000" stroke-width="1.0" stroke-linejoin="round" stroke-linecap="butt" d="m165.35031 38.996258l0 5.6377945" fill-rule="evenodd"/><path fill="#000000" fill-opacity="0.0" d="m187.38422 38.996258l0 5.6377945" fill-rule="evenodd"/><path stroke="#000000" stroke-width="1.0" stroke-linejoin="round" stroke-linecap="butt" d="m187.38422 38.996258l0 5.6377945" fill-rule="evenodd"/><path fill="#000000" fill-opacity="0.0" d="m174.60313 38.996258l0 5.6377945" fill-rule="evenodd"/><path stroke="#000000" stroke-width="1.0" stroke-linejoin="round" stroke-linecap="butt" d="m174.60313 38.996258l0 5.6377945" fill-rule="evenodd"/><path fill="#000000" fill-opacity="0.0" d="m183.27411 38.996258l0 5.6377945" fill-rule="evenodd"/><path stroke="#000000" stroke-width="1.0" stroke-linejoin="round" stroke-linecap="butt" d="m183.27411 38.996258l0 5.6377945" fill-rule="evenodd"/><path fill="#000000" fill-opacity="0.0" d="m189.56717 38.996258l0 5.6377945" fill-rule="evenodd"/><path stroke="#000000" stroke-width="1.0" stroke-linejoin="round" stroke-linecap="butt" d="m189.56717 38.996258l0 5.6377945" fill-rule="evenodd"/><path fill="#000000" fill-opacity="0.0" d="m170.08415 38.996258l0 5.6377945" fill-rule="evenodd"/><path stroke="#000000" stroke-width="1.0" stroke-linejoin="round" stroke-linecap="butt" d="m170.08415 38.996258l0 5.6377945" fill-rule="evenodd"/><path fill="#efefef" d="m153.28346 56.01171l38.551178 0l0 5.6377945l-38.551178 0z" fill-rule="evenodd"/><path fill="#efefef" d="m153.15749 72.207214l38.551178 0l0 5.637802l-38.551178 0z" fill-rule="evenodd"/><path fill="#000000" fill-opacity="0.0" d="m156.15509 56.00938l0 5.6377945" fill-rule="evenodd"/><path stroke="#000000" stroke-width="1.0" stroke-linejoin="round" stroke-linecap="butt" d="m156.15509 56.00938l0 5.6377945" fill-rule="evenodd"/><path fill="#000000" fill-opacity="0.0" d="m164.49467 56.00938l0 5.6377945" fill-rule="evenodd"/><path stroke="#000000" stroke-width="1.0" stroke-linejoin="round" stroke-linecap="butt" d="m164.49467 56.00938l0 5.6377945" fill-rule="evenodd"/><path fill="#000000" fill-opacity="0.0" d="m186.52858 56.00938l0 5.6377945" fill-rule="evenodd"/><path stroke="#000000" stroke-width="1.0" stroke-linejoin="round" stroke-linecap="butt" d="m186.52858 56.00938l0 5.6377945" fill-rule="evenodd"/><path fill="#000000" fill-opacity="0.0" d="m173.7475 56.00938l0 5.6377945" fill-rule="evenodd"/><path stroke="#000000" stroke-width="1.0" stroke-linejoin="round" stroke-linecap="butt" d="m173.7475 56.00938l0 5.6377945" fill-rule="evenodd"/><path fill="#000000" fill-opacity="0.0" d="m182.41847 56.00938l0 5.6377945" fill-rule="evenodd"/><path stroke="#000000" stroke-width="1.0" stroke-linejoin="round" stroke-linecap="butt" d="m182.41847 56.00938l0 5.6377945" fill-rule="evenodd"/><path fill="#000000" fill-opacity="0.0" d="m188.71153 56.00938l0 5.6377945" fill-rule="evenodd"/><path stroke="#000000" stroke-width="1.0" stroke-linejoin="round" stroke-linecap="butt" d="m188.71153 56.00938l0 5.6377945" fill-rule="evenodd"/><path fill="#000000" fill-opacity="0.0" d="m169.22852 56.00938l0 5.6377945" fill-rule="evenodd"/><path stroke="#000000" stroke-width="1.0" stroke-linejoin="round" stroke-linecap="butt" d="m169.22852 56.00938l0 5.6377945" fill-rule="evenodd"/><path fill="#000000" fill-opacity="0.0" d="m156.70628 72.20623l0 5.6377945" fill-rule="evenodd"/><path stroke="#000000" stroke-width="1.0" stroke-linejoin="round" stroke-linecap="butt" d="m156.70628 72.20623l0 5.6377945" fill-rule="evenodd"/><path fill="#000000" fill-opacity="0.0" d="m165.04585 72.20623l0 5.6377945" fill-rule="evenodd"/><path stroke="#000000" stroke-width="1.0" stroke-linejoin="round" stroke-linecap="butt" d="m165.04585 72.20623l0 5.6377945" fill-rule="evenodd"/><path fill="#000000" fill-opacity="0.0" d="m187.07976 72.20623l0 5.6377945" fill-rule="evenodd"/><path stroke="#000000" stroke-width="1.0" stroke-linejoin="round" stroke-linecap="butt" d="m187.07976 72.20623l0 5.6377945" fill-rule="evenodd"/><path fill="#000000" fill-opacity="0.0" d="m174.29868 72.20623l0 5.6377945" fill-rule="evenodd"/><path stroke="#000000" stroke-width="1.0" stroke-linejoin="round" stroke-linecap="butt" d="m174.29868 72.20623l0 5.6377945" fill-rule="evenodd"/><path fill="#000000" fill-opacity="0.0" d="m182.96965 72.20623l0 5.6377945" fill-rule="evenodd"/><path stroke="#000000" stroke-width="1.0" stroke-linejoin="round" stroke-linecap="butt" d="m182.96965 72.20623l0 5.6377945" fill-rule="evenodd"/><path fill="#000000" fill-opacity="0.0" d="m189.26271 72.20623l0 5.6377945" fill-rule="evenodd"/><path stroke="#000000" stroke-width="1.0" stroke-linejoin="round" stroke-linecap="butt" d="m189.26271 72.20623l0 5.6377945" fill-rule="evenodd"/><path fill="#000000" fill-opacity="0.0" d="m169.7797 72.20623l0 5.6377945" fill-rule="evenodd"/><path stroke="#000000" stroke-width="1.0" stroke-linejoin="round" stroke-linecap="butt" d="m169.7797 72.20623l0 5.6377945" fill-rule="evenodd"/><path fill="#000000" fill-opacity="0.0" d="m109.839005 262.185l0 0c-4.481537 -4.481537 -7.0324173 -10.526627 -7.091484 -16.80539c-0.059066772 -6.278778 2.3785248 -12.276932 6.77652 -16.674927l16.897636 16.897629z" fill-rule="evenodd"/><path fill="#000000" fill-opacity="0.0" d="m109.839005 262.185l0 0c-4.481537 -4.481537 -7.0324173 -10.526627 -7.091484 -16.80539c-0.059066772 -6.278778 2.3785248 -12.276932 6.77652 -16.674927" fill-rule="evenodd"/><path stroke="#666666" stroke-width="1.0" stroke-linejoin="round" stroke-linecap="butt" d="m109.839005 262.185l0 0c-4.481537 -4.481537 -7.0324173 -10.526627 -7.091484 -16.80539c-0.059066772 -6.278778 2.3785248 -12.276932 6.77652 -16.674927" fill-rule="evenodd"/><path fill="#000000" fill-opacity="0.0" d="m119.598434 178.3294l0 0c4.143219 4.134857 6.326515 9.890625 6.0695724 16.001053c-0.25693512 6.110443 -2.9330597 12.075027 -7.4396515 16.58162l-15.622047 -15.590546z" fill-rule="evenodd"/><path fill="#000000" fill-opacity="0.0" d="m119.598434 178.3294l0 0c4.143219 4.134857 6.326515 9.890625 6.0695724 16.001053c-0.25693512 6.110443 -2.9330597 12.075027 -7.4396515 16.58162" fill-rule="evenodd"/><path stroke="#d95e10" stroke-width="2.0" stroke-linejoin="round" stroke-linecap="butt" d="m119.598434 178.3294l0 0c4.143219 4.134857 6.326515 9.890625 6.0695724 16.001053c-0.25693512 6.110443 -2.9330597 12.075027 -7.4396515 16.58162" fill-rule="evenodd"/><path fill="#000000" fill-opacity="0.0" d="m119.95317 178.34254l0 0c2.0006104 1.9964447 3.1179047 4.7124786 3.1060944 7.5506287c-0.011817932 2.83815 -1.1517715 5.565918 -3.1690826 7.5832367l-7.543312 -7.5275574z" fill-rule="evenodd"/><path fill="#000000" fill-opacity="0.0" d="m119.95317 178.34254l0 0c2.0006104 1.9964447 3.1179047 4.7124786 3.1060944 7.5506287c-0.011817932 2.83815 -1.1517715 5.565918 -3.1690826 7.5832367" fill-rule="evenodd"/><path stroke="#d95e10" stroke-width="2.0" stroke-linejoin="round" stroke-linecap="butt" d="m119.95317 178.34254l0 0c2.0006104 1.9964447 3.1179047 4.7124786 3.1060944 7.5506287c-0.011817932 2.83815 -1.1517715 5.565918 -3.1690826 7.5832367" fill-rule="evenodd"/><path fill="#000000" fill-opacity="0.0" d="m109.62713 242.27164l0 0c-3.5710297 -3.5710144 -5.5108414 -8.480743 -5.392708 -13.649063c0.118133545 -5.1683197 2.2845383 -10.17189 6.022629 -13.909988l13.464569 13.464569z" fill-rule="evenodd"/><path fill="#000000" fill-opacity="0.0" d="m109.62713 242.27164l0 0c-3.5710297 -3.5710144 -5.5108414 -8.480743 -5.392708 -13.649063c0.118133545 -5.1683197 2.2845383 -10.17189 6.022629 -13.909988" fill-rule="evenodd"/><path stroke="#666666" stroke-width="1.0" stroke-linejoin="round" stroke-linecap="butt" d="m109.62713 242.27164l0 0c-3.5710297 -3.5710144 -5.5108414 -8.480743 -5.392708 -13.649063c0.118133545 -5.1683197 2.2845383 -10.17189 6.022629 -13.909988" fill-rule="evenodd"/><path fill="#f3f3f3" d="m109.03935 260.7777l0 0c0 -3.044098 2.4677277 -5.5118103 5.511818 -5.5118103l0 0c1.4618225 0 2.8637695 0.58070374 3.897438 1.6143799c1.0336609 1.0336609 1.6143723 2.435608 1.6143723 3.8974304l0 0c0 3.044098 -2.4677277 5.5118103 -5.5118103 5.5118103l0 0c-3.0440903 0 -5.511818 -2.4677124 -5.511818 -5.5118103z" fill-rule="evenodd"/><path stroke="#434343" stroke-width="1.0" stroke-linejoin="round" stroke-linecap="butt" d="m109.03935 260.7777l0 0c0 -3.044098 2.4677277 -5.5118103 5.511818 -5.5118103l0 0c1.4618225 0 2.8637695 0.58070374 3.897438 1.6143799c1.0336609 1.0336609 1.6143723 2.435608 1.6143723 3.8974304l0 0c0 3.044098 -2.4677277 5.5118103 -5.5118103 5.5118103l0 0c-3.0440903 0 -5.511818 -2.4677124 -5.511818 -5.5118103z" fill-rule="evenodd"/><path fill="#f3f3f3" d="m109.03935 244.7969l0 0c0 -3.0440826 2.4677277 -5.5118103 5.511818 -5.5118103l0 0c1.4618225 0 2.8637695 0.58070374 3.897438 1.6143799c1.0336609 1.0336609 1.6143723 2.435608 1.6143723 3.8974304l0 0c0 3.044098 -2.4677277 5.5118103 -5.5118103 5.5118103l0 0c-3.0440903 0 -5.511818 -2.4677124 -5.511818 -5.5118103z" fill-rule="evenodd"/><path stroke="#434343" stroke-width="1.0" stroke-linejoin="round" stroke-linecap="butt" d="m109.03935 244.7969l0 0c0 -3.0440826 2.4677277 -5.5118103 5.511818 -5.5118103l0 0c1.4618225 0 2.8637695 0.58070374 3.897438 1.6143799c1.0336609 1.0336609 1.6143723 2.435608 1.6143723 3.8974304l0 0c0 3.044098 -2.4677277 5.5118103 -5.5118103 5.5118103l0 0c-3.0440903 0 -5.511818 -2.4677124 -5.511818 -5.5118103z" fill-rule="evenodd"/><path fill="#fce5cd" d="m109.03935 227.89543l0 0c0 -3.0440826 2.4677277 -5.5118103 5.511818 -5.5118103l0 0c1.4618225 0 2.8637695 0.58070374 3.897438 1.6143799c1.0336609 1.0336609 1.6143723 2.435608 1.6143723 3.8974304l0 0c0 3.044098 -2.4677277 5.5118103 -5.5118103 5.5118103l0 0c-3.0440903 0 -5.511818 -2.4677124 -5.511818 -5.5118103z" fill-rule="evenodd"/><path stroke="#434343" stroke-width="1.0" stroke-linejoin="round" stroke-linecap="butt" d="m109.03935 227.89543l0 0c0 -3.0440826 2.4677277 -5.5118103 5.511818 -5.5118103l0 0c1.4618225 0 2.8637695 0.58070374 3.897438 1.6143799c1.0336609 1.0336609 1.6143723 2.435608 1.6143723 3.8974304l0 0c0 3.044098 -2.4677277 5.5118103 -5.5118103 5.5118103l0 0c-3.0440903 0 -5.511818 -2.4677124 -5.511818 -5.5118103z" fill-rule="evenodd"/><path fill="#fce5cd" d="m109.03935 210.99396l0 0c0 -3.0440826 2.4677277 -5.5118103 5.511818 -5.5118103l0 0c1.4618225 0 2.8637695 0.58070374 3.897438 1.6143646c1.0336609 1.0336761 1.6143723 2.4356232 1.6143723 3.8974457l0 0c0 3.0440826 -2.4677277 5.5118103 -5.5118103 5.5118103l0 0c-3.0440903 0 -5.511818 -2.4677277 -5.511818 -5.5118103z" fill-rule="evenodd"/><path stroke="#434343" stroke-width="1.0" stroke-linejoin="round" stroke-linecap="butt" d="m109.03935 210.99396l0 0c0 -3.0440826 2.4677277 -5.5118103 5.511818 -5.5118103l0 0c1.4618225 0 2.8637695 0.58070374 3.897438 1.6143646c1.0336609 1.0336761 1.6143723 2.4356232 1.6143723 3.8974457l0 0c0 3.0440826 -2.4677277 5.5118103 -5.5118103 5.5118103l0 0c-3.0440903 0 -5.511818 -2.4677277 -5.511818 -5.5118103z" fill-rule="evenodd"/><path fill="#fce5cd" d="m109.03935 194.09248l0 0c0 -3.044098 2.4677277 -5.5118103 5.511818 -5.5118103l0 0c1.4618225 0 2.8637695 0.58070374 3.897438 1.6143646c1.0336609 1.0336761 1.6143723 2.4356232 1.6143723 3.8974457l0 0c0 3.0440826 -2.4677277 5.5118103 -5.5118103 5.5118103l0 0c-3.0440903 0 -5.511818 -2.4677277 -5.511818 -5.5118103z" fill-rule="evenodd"/><path stroke="#434343" stroke-width="1.0" stroke-linejoin="round" stroke-linecap="butt" d="m109.03935 194.09248l0 0c0 -3.044098 2.4677277 -5.5118103 5.511818 -5.5118103l0 0c1.4618225 0 2.8637695 0.58070374 3.897438 1.6143646c1.0336609 1.0336761 1.6143723 2.4356232 1.6143723 3.8974457l0 0c0 3.0440826 -2.4677277 5.5118103 -5.5118103 5.5118103l0 0c-3.0440903 0 -5.511818 -2.4677277 -5.511818 -5.5118103z" fill-rule="evenodd"/><path fill="#fce5cd" d="m109.03935 177.19101l0 0c0 -3.044098 2.4677277 -5.5118103 5.511818 -5.5118103l0 0c1.4618225 0 2.8637695 0.58070374 3.897438 1.6143646c1.0336609 1.0336609 1.6143723 2.4356232 1.6143723 3.8974457l0 0c0 3.0440826 -2.4677277 5.5118103 -5.5118103 5.5118103l0 0c-3.0440903 0 -5.511818 -2.4677277 -5.511818 -5.5118103z" fill-rule="evenodd"/><path stroke="#434343" stroke-width="1.0" stroke-linejoin="round" stroke-linecap="butt" d="m109.03935 177.19101l0 0c0 -3.044098 2.4677277 -5.5118103 5.511818 -5.5118103l0 0c1.4618225 0 2.8637695 0.58070374 3.897438 1.6143646c1.0336609 1.0336609 1.6143723 2.4356232 1.6143723 3.8974457l0 0c0 3.0440826 -2.4677277 5.5118103 -5.5118103 5.5118103l0 0c-3.0440903 0 -5.511818 -2.4677277 -5.511818 -5.5118103z" fill-rule="evenodd"/><path fill="#efefef" d="m44.46719 175.49202l38.55118 0l0 5.637787l-38.55118 0z" fill-rule="evenodd"/><path fill="#000000" fill-opacity="0.0" d="m46.94061 175.49232l0 5.637787" fill-rule="evenodd"/><path stroke="#000000" stroke-width="1.0" stroke-linejoin="round" stroke-linecap="butt" d="m46.94061 175.49232l0 5.637787" fill-rule="evenodd"/><path fill="#000000" fill-opacity="0.0" d="m80.63357 175.49232l0 5.637787" fill-rule="evenodd"/><path stroke="#000000" stroke-width="1.0" stroke-linejoin="round" stroke-linecap="butt" d="m80.63357 175.49232l0 5.637787" fill-rule="evenodd"/><path fill="#000000" fill-opacity="0.0" d="m68.1872 175.49232l0 5.637787" fill-rule="evenodd"/><path stroke="#000000" stroke-width="1.0" stroke-linejoin="round" stroke-linecap="butt" d="m68.1872 175.49232l0 5.637787" fill-rule="evenodd"/><path fill="#000000" fill-opacity="0.0" d="m60.233757 175.49232l0 5.637787" fill-rule="evenodd"/><path stroke="#000000" stroke-width="1.0" stroke-linejoin="round" stroke-linecap="butt" d="m60.233757 175.49232l0 5.637787" fill-rule="evenodd"/><path fill="#000000" fill-opacity="0.0" d="m89.78215 178.1693l-0.31495667 0.28346252" fill-rule="evenodd"/><path stroke="#d95e10" stroke-width="1.0" stroke-linejoin="round" stroke-linecap="butt" d="m89.78215 178.1693l-0.31495667 0.28346252" fill-rule="evenodd"/><path stroke="#d95e10" stroke-width="1.0" stroke-linecap="butt" d="m89.46719 180.10449l4.5380936 -1.6517334l-4.5380936 -1.6517334z" fill-rule="evenodd"/><path fill="#efefef" d="m44.46719 192.50778l38.55118 0l0 5.637787l-38.55118 0z" fill-rule="evenodd"/><path fill="#000000" fill-opacity="0.0" d="m49.134834 192.50807l0 5.637802" fill-rule="evenodd"/><path stroke="#000000" stroke-width="1.0" stroke-linejoin="round" stroke-linecap="butt" d="m49.134834 192.50807l0 5.637802" fill-rule="evenodd"/><path fill="#000000" fill-opacity="0.0" d="m55.350315 192.50807l0 5.637802" fill-rule="evenodd"/><path stroke="#000000" stroke-width="1.0" stroke-linejoin="round" stroke-linecap="butt" d="m55.350315 192.50807l0 5.637802" fill-rule="evenodd"/><path fill="#000000" fill-opacity="0.0" d="m70.35904 192.50807l0 5.637802" fill-rule="evenodd"/><path stroke="#000000" stroke-width="1.0" stroke-linejoin="round" stroke-linecap="butt" d="m70.35904 192.50807l0 5.637802" fill-rule="evenodd"/><path fill="#000000" fill-opacity="0.0" d="m72.65701 192.50807l0 5.637802" fill-rule="evenodd"/><path stroke="#000000" stroke-width="1.0" stroke-linejoin="round" stroke-linecap="butt" d="m72.65701 192.50807l0 5.637802" fill-rule="evenodd"/><path fill="#000000" fill-opacity="0.0" d="m90.27821 195.18504l-0.31495667 0.28346252" fill-rule="evenodd"/><path stroke="#d95e10" stroke-width="1.0" stroke-linejoin="round" stroke-linecap="butt" d="m90.27821 195.18504l-0.31495667 0.28346252" fill-rule="evenodd"/><path stroke="#d95e10" stroke-width="1.0" stroke-linecap="butt" d="m89.96326 197.12024l4.5380936 -1.6517334l-4.5380936 -1.6517334z" fill-rule="evenodd"/><path fill="#efefef" d="m44.341206 208.70328l38.55118 0l0 5.637802l-38.55118 0z" fill-rule="evenodd"/><path fill="#000000" fill-opacity="0.0" d="m51.87525 208.70358l0 5.637802" fill-rule="evenodd"/><path stroke="#000000" stroke-width="1.0" stroke-linejoin="round" stroke-linecap="butt" d="m51.87525 208.70358l0 5.637802" fill-rule="evenodd"/><path fill="#000000" fill-opacity="0.0" d="m73.948524 208.70358l0 5.637802" fill-rule="evenodd"/><path stroke="#000000" stroke-width="1.0" stroke-linejoin="round" stroke-linecap="butt" d="m73.948524 208.70358l0 5.637802" fill-rule="evenodd"/><path fill="#000000" fill-opacity="0.0" d="m59.21899 208.70358l0 5.637802" fill-rule="evenodd"/><path stroke="#000000" stroke-width="1.0" stroke-linejoin="round" stroke-linecap="butt" d="m59.21899 208.70358l0 5.637802" fill-rule="evenodd"/><path fill="#000000" fill-opacity="0.0" d="m57.80594 208.70358l0 5.637802" fill-rule="evenodd"/><path stroke="#000000" stroke-width="1.0" stroke-linejoin="round" stroke-linecap="butt" d="m57.80594 208.70358l0 5.637802" fill-rule="evenodd"/><path fill="#000000" fill-opacity="0.0" d="m90.4042 211.38058l-0.31495667 0.28346252" fill-rule="evenodd"/><path stroke="#d95e10" stroke-width="1.0" stroke-linejoin="round" stroke-linecap="butt" d="m90.4042 211.38058l-0.31495667 0.28346252" fill-rule="evenodd"/><path stroke="#d95e10" stroke-width="1.0" stroke-linecap="butt" d="m90.08924 213.31578l4.5380936 -1.6517334l-4.5380936 -1.6517334z" fill-rule="evenodd"/><path fill="#000000" fill-opacity="0.0" d="m137.3412 178.57349l-0.31495667 0.28346252" fill-rule="evenodd"/><path stroke="#d95e10" stroke-width="1.0" stroke-linejoin="round" stroke-linecap="butt" d="m137.3412 178.57349l-0.31495667 0.28346252" fill-rule="evenodd"/><path stroke="#d95e10" stroke-width="1.0" stroke-linecap="butt" d="m137.02625 180.50868l4.538101 -1.6517334l-4.538101 -1.6517334z" fill-rule="evenodd"/><path fill="#000000" fill-opacity="0.0" d="m137.83727 195.58923l-0.31495667 0.28346252" fill-rule="evenodd"/><path stroke="#d95e10" stroke-width="1.0" stroke-linejoin="round" stroke-linecap="butt" d="m137.83727 195.58923l-0.31495667 0.28346252" fill-rule="evenodd"/><path stroke="#d95e10" stroke-width="1.0" stroke-linecap="butt" d="m137.52231 197.52443l4.538101 -1.6517334l-4.538101 -1.6517181z" fill-rule="evenodd"/><path fill="#000000" fill-opacity="0.0" d="m137.96326 211.78477l-0.31495667 0.28346252" fill-rule="evenodd"/><path stroke="#d95e10" stroke-width="1.0" stroke-linejoin="round" stroke-linecap="butt" d="m137.96326 211.78477l-0.31495667 0.28346252" fill-rule="evenodd"/><path stroke="#d95e10" stroke-width="1.0" stroke-linecap="butt" d="m137.6483 213.71997l4.538086 -1.6517334l-4.538086 -1.6517334z" fill-rule="evenodd"/><path fill="#efefef" d="m154.64568 175.89622l38.551178 0l0 5.637787l-38.551178 0z" fill-rule="evenodd"/><path fill="#000000" fill-opacity="0.0" d="m161.00287 176.10387l0 5.637802" fill-rule="evenodd"/><path stroke="#000000" stroke-width="1.0" stroke-linejoin="round" stroke-linecap="butt" d="m161.00287 176.10387l0 5.637802" fill-rule="evenodd"/><path fill="#000000" fill-opacity="0.0" d="m175.96535 175.89651l0 5.637802" fill-rule="evenodd"/><path stroke="#000000" stroke-width="1.0" stroke-linejoin="round" stroke-linecap="butt" d="m175.96535 175.89651l0 5.637802" fill-rule="evenodd"/><path fill="#000000" fill-opacity="0.0" d="m190.62581 175.89651l0 5.637802" fill-rule="evenodd"/><path stroke="#000000" stroke-width="1.0" stroke-linejoin="round" stroke-linecap="butt" d="m190.62581 175.89651l0 5.637802" fill-rule="evenodd"/><path fill="#000000" fill-opacity="0.0" d="m171.44635 175.89651l0 5.637802" fill-rule="evenodd"/><path stroke="#000000" stroke-width="1.0" stroke-linejoin="round" stroke-linecap="butt" d="m171.44635 175.89651l0 5.637802" fill-rule="evenodd"/><path fill="#efefef" d="m154.64568 192.91197l38.551178 0l0 5.637802l-38.551178 0z" fill-rule="evenodd"/><path fill="#efefef" d="m154.51968 209.10748l38.551178 0l0 5.637787l-38.551178 0z" fill-rule="evenodd"/><path fill="#000000" fill-opacity="0.0" d="m161.12097 192.90964l0 5.637802" fill-rule="evenodd"/><path stroke="#000000" stroke-width="1.0" stroke-linejoin="round" stroke-linecap="butt" d="m161.12097 192.90964l0 5.637802" fill-rule="evenodd"/><path fill="#000000" fill-opacity="0.0" d="m175.1097 192.90964l0 5.637802" fill-rule="evenodd"/><path stroke="#000000" stroke-width="1.0" stroke-linejoin="round" stroke-linecap="butt" d="m175.1097 192.90964l0 5.637802" fill-rule="evenodd"/><path fill="#000000" fill-opacity="0.0" d="m190.53133 192.90964l0 5.637802" fill-rule="evenodd"/><path stroke="#000000" stroke-width="1.0" stroke-linejoin="round" stroke-linecap="butt" d="m190.53133 192.90964l0 5.637802" fill-rule="evenodd"/><path fill="#000000" fill-opacity="0.0" d="m170.59071 192.90964l0 5.637802" fill-rule="evenodd"/><path stroke="#000000" stroke-width="1.0" stroke-linejoin="round" stroke-linecap="butt" d="m170.59071 192.90964l0 5.637802" fill-rule="evenodd"/><path fill="#000000" fill-opacity="0.0" d="m159.9215 209.1078l0 5.637802" fill-rule="evenodd"/><path stroke="#000000" stroke-width="1.0" stroke-linejoin="round" stroke-linecap="butt" d="m159.9215 209.1078l0 5.637802" fill-rule="evenodd"/><path fill="#000000" fill-opacity="0.0" d="m175.66087 209.10649l0 5.637802" fill-rule="evenodd"/><path stroke="#000000" stroke-width="1.0" stroke-linejoin="round" stroke-linecap="butt" d="m175.66087 209.10649l0 5.637802" fill-rule="evenodd"/><path fill="#000000" fill-opacity="0.0" d="m190.62491 209.10649l0 5.637802" fill-rule="evenodd"/><path stroke="#000000" stroke-width="1.0" stroke-linejoin="round" stroke-linecap="butt" d="m190.62491 209.10649l0 5.637802" fill-rule="evenodd"/><path fill="#000000" fill-opacity="0.0" d="m171.14189 209.10649l0 5.637802" fill-rule="evenodd"/><path stroke="#000000" stroke-width="1.0" stroke-linejoin="round" stroke-linecap="butt" d="m171.14189 209.10649l0 5.637802" fill-rule="evenodd"/><path fill="#000000" fill-opacity="0.0" d="m302.91275 123.19814l0 0c-4.452301 -4.452301 -6.9270325 -10.517456 -6.8797607 -16.861206c0.04724121 -6.34375 2.6126099 -12.446449 7.1317444 -16.965569l16.787384 16.7874z" fill-rule="evenodd"/><path fill="#000000" fill-opacity="0.0" d="m302.91275 123.19814l0 0c-4.452301 -4.452301 -6.9270325 -10.517456 -6.8797607 -16.861206c0.04724121 -6.34375 2.6126099 -12.446449 7.1317444 -16.965569" fill-rule="evenodd"/><path stroke="#666666" stroke-width="1.0" stroke-linejoin="round" stroke-linecap="butt" d="m302.91275 123.19814l0 0c-4.452301 -4.452301 -6.9270325 -10.517456 -6.8797607 -16.861206c0.04724121 -6.34375 2.6126099 -12.446449 7.1317444 -16.965569" fill-rule="evenodd"/><path fill="#000000" fill-opacity="0.0" d="m312.42783 41.690292l0 0c4.143219 4.1348724 6.3265076 9.890625 6.06958 16.001064c-0.2569275 6.1104355 -2.933075 12.075024 -7.4396667 16.581615l-15.62204 -15.590553z" fill-rule="evenodd"/><path fill="#000000" fill-opacity="0.0" d="m312.42783 41.690292l0 0c4.143219 4.1348724 6.3265076 9.890625 6.06958 16.001064c-0.2569275 6.1104355 -2.933075 12.075024 -7.4396667 16.581615" fill-rule="evenodd"/><path stroke="#d95e10" stroke-width="2.0" stroke-linejoin="round" stroke-linecap="butt" d="m312.42783 41.690292l0 0c4.143219 4.1348724 6.3265076 9.890625 6.06958 16.001064c-0.2569275 6.1104355 -2.933075 12.075024 -7.4396667 16.581615" fill-rule="evenodd"/><path fill="#000000" fill-opacity="0.0" d="m312.78256 41.70344l0 0c2.0006104 1.9964333 3.11792 4.712475 3.1061096 7.550621c-0.01184082 2.83815 -1.1517944 5.565922 -3.169098 7.5832367l-7.5433044 -7.5275574z" fill-rule="evenodd"/><path fill="#000000" fill-opacity="0.0" d="m312.78256 41.70344l0 0c2.0006104 1.9964333 3.11792 4.712475 3.1061096 7.550621c-0.01184082 2.83815 -1.1517944 5.565922 -3.169098 7.5832367" fill-rule="evenodd"/><path stroke="#d95e10" stroke-width="2.0" stroke-linejoin="round" stroke-linecap="butt" d="m312.78256 41.70344l0 0c2.0006104 1.9964333 3.11792 4.712475 3.1061096 7.550621c-0.01184082 2.83815 -1.1517944 5.565922 -3.169098 7.5832367" fill-rule="evenodd"/><path fill="#000000" fill-opacity="0.0" d="m302.20456 104.965866l0 0c-3.5710144 -3.571022 -5.5108337 -8.480743 -5.3927 -13.649063c0.118133545 -5.1683273 2.2845154 -10.171898 6.0226135 -13.909988l13.464569 13.464561z" fill-rule="evenodd"/><path fill="#000000" fill-opacity="0.0" d="m302.20456 104.965866l0 0c-3.5710144 -3.571022 -5.5108337 -8.480743 -5.3927 -13.649063c0.118133545 -5.1683273 2.2845154 -10.171898 6.0226135 -13.909988" fill-rule="evenodd"/><path stroke="#666666" stroke-width="1.0" stroke-linejoin="round" stroke-linecap="butt" d="m302.20456 104.965866l0 0c-3.5710144 -3.571022 -5.5108337 -8.480743 -5.3927 -13.649063c0.118133545 -5.1683273 2.2845154 -10.171898 6.0226135 -13.909988" fill-rule="evenodd"/><path fill="#f3f3f3" d="m301.86874 124.138596l0 0c0 -3.0440903 2.467743 -5.5118103 5.5118103 -5.5118103l0 0c1.4618225 0 2.8637695 0.58071136 3.897461 1.6143723c1.0336609 1.0336685 1.6143494 2.4356155 1.6143494 3.897438l0 0c0 3.0440903 -2.4677124 5.5118103 -5.5118103 5.5118103l0 0c-3.0440674 0 -5.5118103 -2.46772 -5.5118103 -5.5118103z" fill-rule="evenodd"/><path stroke="#434343" stroke-width="1.0" stroke-linejoin="round" stroke-linecap="butt" d="m301.86874 124.138596l0 0c0 -3.0440903 2.467743 -5.5118103 5.5118103 -5.5118103l0 0c1.4618225 0 2.8637695 0.58071136 3.897461 1.6143723c1.0336609 1.0336685 1.6143494 2.4356155 1.6143494 3.897438l0 0c0 3.0440903 -2.4677124 5.5118103 -5.5118103 5.5118103l0 0c-3.0440674 0 -5.5118103 -2.46772 -5.5118103 -5.5118103z" fill-rule="evenodd"/><path fill="#f3f3f3" d="m301.86874 108.1578l0 0c0 -3.0440826 2.467743 -5.5118103 5.5118103 -5.5118103l0 0c1.4618225 0 2.8637695 0.58071136 3.897461 1.6143723c1.0336609 1.0336685 1.6143494 2.4356155 1.6143494 3.897438l0 0c0 3.0440903 -2.4677124 5.5118103 -5.5118103 5.5118103l0 0c-3.0440674 0 -5.5118103 -2.46772 -5.5118103 -5.5118103z" fill-rule="evenodd"/><path stroke="#434343" stroke-width="1.0" stroke-linejoin="round" stroke-linecap="butt" d="m301.86874 108.1578l0 0c0 -3.0440826 2.467743 -5.5118103 5.5118103 -5.5118103l0 0c1.4618225 0 2.8637695 0.58071136 3.897461 1.6143723c1.0336609 1.0336685 1.6143494 2.4356155 1.6143494 3.897438l0 0c0 3.0440903 -2.4677124 5.5118103 -5.5118103 5.5118103l0 0c-3.0440674 0 -5.5118103 -2.46772 -5.5118103 -5.5118103z" fill-rule="evenodd"/><path fill="#efefef" d="m301.86874 91.256325l0 0c0 -3.0440903 2.467743 -5.5118103 5.5118103 -5.5118103l0 0c1.4618225 0 2.8637695 0.58070374 3.897461 1.6143723c1.0336609 1.0336685 1.6143494 2.4356155 1.6143494 3.897438l0 0c0 3.0440903 -2.4677124 5.5118103 -5.5118103 5.5118103l0 0c-3.0440674 0 -5.5118103 -2.46772 -5.5118103 -5.5118103z" fill-rule="evenodd"/><path stroke="#434343" stroke-width="1.0" stroke-linejoin="round" stroke-linecap="butt" d="m301.86874 91.256325l0 0c0 -3.0440903 2.467743 -5.5118103 5.5118103 -5.5118103l0 0c1.4618225 0 2.8637695 0.58070374 3.897461 1.6143723c1.0336609 1.0336685 1.6143494 2.4356155 1.6143494 3.897438l0 0c0 3.0440903 -2.4677124 5.5118103 -5.5118103 5.5118103l0 0c-3.0440674 0 -5.5118103 -2.46772 -5.5118103 -5.5118103z" fill-rule="evenodd"/><path fill="#fce5cd" d="m301.86874 74.35485l0 0c0 -3.0440903 2.467743 -5.5118103 5.5118103 -5.5118103l0 0c1.4618225 0 2.8637695 0.58070374 3.897461 1.6143723c1.0336609 1.0336609 1.6143494 2.4356155 1.6143494 3.897438l0 0c0 3.0440903 -2.4677124 5.5118103 -5.5118103 5.5118103l0 0c-3.0440674 0 -5.5118103 -2.46772 -5.5118103 -5.5118103z" fill-rule="evenodd"/><path stroke="#434343" stroke-width="1.0" stroke-linejoin="round" stroke-linecap="butt" d="m301.86874 74.35485l0 0c0 -3.0440903 2.467743 -5.5118103 5.5118103 -5.5118103l0 0c1.4618225 0 2.8637695 0.58070374 3.897461 1.6143723c1.0336609 1.0336609 1.6143494 2.4356155 1.6143494 3.897438l0 0c0 3.0440903 -2.4677124 5.5118103 -5.5118103 5.5118103l0 0c-3.0440674 0 -5.5118103 -2.46772 -5.5118103 -5.5118103z" fill-rule="evenodd"/><path fill="#fce5cd" d="m301.86874 57.453373l0 0c0 -3.0440903 2.467743 -5.5118103 5.5118103 -5.5118103l0 0c1.4618225 0 2.8637695 0.58070755 3.897461 1.6143723c1.0336609 1.0336647 1.6143494 2.4356155 1.6143494 3.897438l0 0c0 3.0440903 -2.4677124 5.5118103 -5.5118103 5.5118103l0 0c-3.0440674 0 -5.5118103 -2.46772 -5.5118103 -5.5118103z" fill-rule="evenodd"/><path stroke="#434343" stroke-width="1.0" stroke-linejoin="round" stroke-linecap="butt" d="m301.86874 57.453373l0 0c0 -3.0440903 2.467743 -5.5118103 5.5118103 -5.5118103l0 0c1.4618225 0 2.8637695 0.58070755 3.897461 1.6143723c1.0336609 1.0336647 1.6143494 2.4356155 1.6143494 3.897438l0 0c0 3.0440903 -2.4677124 5.5118103 -5.5118103 5.5118103l0 0c-3.0440674 0 -5.5118103 -2.46772 -5.5118103 -5.5118103z" fill-rule="evenodd"/><path fill="#fce5cd" d="m301.86874 40.5519l0 0c0 -3.0440903 2.467743 -5.511814 5.5118103 -5.511814l0 0c1.4618225 0 2.8637695 0.58070755 3.897461 1.6143723c1.0336609 1.0336647 1.6143494 2.4356155 1.6143494 3.8974419l0 0c0 3.0440865 -2.4677124 5.5118103 -5.5118103 5.5118103l0 0c-3.0440674 0 -5.5118103 -2.4677238 -5.5118103 -5.5118103z" fill-rule="evenodd"/><path stroke="#434343" stroke-width="1.0" stroke-linejoin="round" stroke-linecap="butt" d="m301.86874 40.5519l0 0c0 -3.0440903 2.467743 -5.511814 5.5118103 -5.511814l0 0c1.4618225 0 2.8637695 0.58070755 3.897461 1.6143723c1.0336609 1.0336647 1.6143494 2.4356155 1.6143494 3.8974419l0 0c0 3.0440865 -2.4677124 5.5118103 -5.5118103 5.5118103l0 0c-3.0440674 0 -5.5118103 -2.4677238 -5.5118103 -5.5118103z" fill-rule="evenodd"/><path fill="#efefef" d="m235.38583 105.27549l38.551178 0l0 5.6377945l-38.551178 0z" fill-rule="evenodd"/><path fill="#000000" fill-opacity="0.0" d="m240.05347 105.275795l0 5.6377945" fill-rule="evenodd"/><path stroke="#000000" stroke-width="1.0" stroke-linejoin="round" stroke-linecap="butt" d="m240.05347 105.275795l0 5.6377945" fill-rule="evenodd"/><path fill="#000000" fill-opacity="0.0" d="m271.55222 105.275795l0 5.6377945" fill-rule="evenodd"/><path stroke="#000000" stroke-width="1.0" stroke-linejoin="round" stroke-linecap="butt" d="m271.55222 105.275795l0 5.6377945" fill-rule="evenodd"/><path fill="#000000" fill-opacity="0.0" d="m261.27768 105.275795l0 5.6377945" fill-rule="evenodd"/><path stroke="#000000" stroke-width="1.0" stroke-linejoin="round" stroke-linecap="butt" d="m261.27768 105.275795l0 5.6377945" fill-rule="evenodd"/><path fill="#000000" fill-opacity="0.0" d="m263.57565 105.275795l0 5.6377945" fill-rule="evenodd"/><path stroke="#000000" stroke-width="1.0" stroke-linejoin="round" stroke-linecap="butt" d="m263.57565 105.275795l0 5.6377945" fill-rule="evenodd"/><path fill="#000000" fill-opacity="0.0" d="m252.48409 105.275795l0 5.6377945" fill-rule="evenodd"/><path stroke="#000000" stroke-width="1.0" stroke-linejoin="round" stroke-linecap="butt" d="m252.48409 105.275795l0 5.6377945" fill-rule="evenodd"/><path fill="#000000" fill-opacity="0.0" d="m281.19684 107.95276l-0.3149414 0.28346252" fill-rule="evenodd"/><path stroke="#434343" stroke-width="1.0" stroke-linejoin="round" stroke-linecap="butt" d="m281.19684 107.95276l-0.3149414 0.28346252" fill-rule="evenodd"/><path stroke="#434343" stroke-width="1.0" stroke-linecap="butt" d="m280.8819 109.887955l4.538086 -1.6517334l-4.538086 -1.6517334z" fill-rule="evenodd"/><path fill="#efefef" d="m235.63255 51.957897l38.551163 0l0 5.6377945l-38.551163 0z" fill-rule="evenodd"/><path fill="#000000" fill-opacity="0.0" d="m246.00812 51.955574l0 5.6377945" fill-rule="evenodd"/><path stroke="#000000" stroke-width="1.0" stroke-linejoin="round" stroke-linecap="butt" d="m246.00812 51.955574l0 5.6377945" fill-rule="evenodd"/><path fill="#000000" fill-opacity="0.0" d="m269.14014 51.9582l0 5.6377945" fill-rule="evenodd"/><path stroke="#000000" stroke-width="1.0" stroke-linejoin="round" stroke-linecap="butt" d="m269.14014 51.9582l0 5.6377945" fill-rule="evenodd"/><path fill="#000000" fill-opacity="0.0" d="m254.95222 51.9582l0 5.6377945" fill-rule="evenodd"/><path stroke="#000000" stroke-width="1.0" stroke-linejoin="round" stroke-linecap="butt" d="m254.95222 51.9582l0 5.6377945" fill-rule="evenodd"/><path fill="#000000" fill-opacity="0.0" d="m263.32104 51.9582l0 5.6377945" fill-rule="evenodd"/><path stroke="#000000" stroke-width="1.0" stroke-linejoin="round" stroke-linecap="butt" d="m263.32104 51.9582l0 5.6377945" fill-rule="evenodd"/><path fill="#000000" fill-opacity="0.0" d="m267.5602 51.9582l0 5.6377945" fill-rule="evenodd"/><path stroke="#000000" stroke-width="1.0" stroke-linejoin="round" stroke-linecap="butt" d="m267.5602 51.9582l0 5.6377945" fill-rule="evenodd"/><path fill="#000000" fill-opacity="0.0" d="m280.9475 54.63517l-0.31497192 0.28346634" fill-rule="evenodd"/><path stroke="#434343" stroke-width="1.0" stroke-linejoin="round" stroke-linecap="butt" d="m280.9475 54.63517l-0.31497192 0.28346634" fill-rule="evenodd"/><path stroke="#434343" stroke-width="1.0" stroke-linecap="butt" d="m280.63254 56.570366l4.5381165 -1.6517296l-4.5381165 -1.6517334z" fill-rule="evenodd"/><path fill="#000000" fill-opacity="0.0" d="m248.9916 51.955574l0 5.6377945" fill-rule="evenodd"/><path stroke="#000000" stroke-width="1.0" stroke-linejoin="round" stroke-linecap="butt" d="m248.9916 51.955574l0 5.6377945" fill-rule="evenodd"/><path fill="#000000" fill-opacity="0.0" d="m240.76726 51.955574l0 5.6377945" fill-rule="evenodd"/><path stroke="#000000" stroke-width="1.0" stroke-linejoin="round" stroke-linecap="butt" d="m240.76726 51.955574l0 5.6377945" fill-rule="evenodd"/><path fill="#000000" fill-opacity="0.0" d="m243.9539 51.955574l0 5.6377945" fill-rule="evenodd"/><path stroke="#000000" stroke-width="1.0" stroke-linejoin="round" stroke-linecap="butt" d="m243.9539 51.955574l0 5.6377945" fill-rule="evenodd"/><path fill="#000000" fill-opacity="0.0" d="m271.21887 51.955574l0 5.6377945" fill-rule="evenodd"/><path stroke="#000000" stroke-width="1.0" stroke-linejoin="round" stroke-linecap="butt" d="m271.21887 51.955574l0 5.6377945" fill-rule="evenodd"/><path fill="#000000" fill-opacity="0.0" d="m257.169 105.27579l0 5.6377945" fill-rule="evenodd"/><path stroke="#000000" stroke-width="1.0" stroke-linejoin="round" stroke-linecap="butt" d="m257.169 105.27579l0 5.6377945" fill-rule="evenodd"/><path fill="#000000" fill-opacity="0.0" d="m235.98003 105.27579l0 5.6377945" fill-rule="evenodd"/><path stroke="#000000" stroke-width="1.0" stroke-linejoin="round" stroke-linecap="butt" d="m235.98003 105.27579l0 5.6377945" fill-rule="evenodd"/><path fill="#000000" fill-opacity="0.0" d="m247.66243 105.27579l0 5.6377945" fill-rule="evenodd"/><path stroke="#000000" stroke-width="1.0" stroke-linejoin="round" stroke-linecap="butt" d="m247.66243 105.27579l0 5.6377945" fill-rule="evenodd"/><path fill="#000000" fill-opacity="0.0" d="m273.27924 105.27579l0 5.6377945" fill-rule="evenodd"/><path stroke="#000000" stroke-width="1.0" stroke-linejoin="round" stroke-linecap="butt" d="m273.27924 105.27579l0 5.6377945" fill-rule="evenodd"/><path fill="#efefef" d="m235.25984 120.04842l38.551193 0l0 5.6377945l-38.551193 0z" fill-rule="evenodd"/><path fill="#000000" fill-opacity="0.0" d="m241.26607 120.04873l0 5.6377945" fill-rule="evenodd"/><path stroke="#000000" stroke-width="1.0" stroke-linejoin="round" stroke-linecap="butt" d="m241.26607 120.04873l0 5.6377945" fill-rule="evenodd"/><path fill="#000000" fill-opacity="0.0" d="m242.79388 120.04873l0 5.6377945" fill-rule="evenodd"/><path stroke="#000000" stroke-width="1.0" stroke-linejoin="round" stroke-linecap="butt" d="m242.79388 120.04873l0 5.6377945" fill-rule="evenodd"/><path fill="#000000" fill-opacity="0.0" d="m254.5349 120.04873l0 5.6377945" fill-rule="evenodd"/><path stroke="#000000" stroke-width="1.0" stroke-linejoin="round" stroke-linecap="butt" d="m254.5349 120.04873l0 5.6377945" fill-rule="evenodd"/><path fill="#000000" fill-opacity="0.0" d="m256.58615 120.04873l0 5.6377945" fill-rule="evenodd"/><path stroke="#000000" stroke-width="1.0" stroke-linejoin="round" stroke-linecap="butt" d="m256.58615 120.04873l0 5.6377945" fill-rule="evenodd"/><path fill="#000000" fill-opacity="0.0" d="m250.13762 120.04873l0 5.6377945" fill-rule="evenodd"/><path stroke="#000000" stroke-width="1.0" stroke-linejoin="round" stroke-linecap="butt" d="m250.13762 120.04873l0 5.6377945" fill-rule="evenodd"/><path fill="#000000" fill-opacity="0.0" d="m267.14197 120.04873l0 5.6377945" fill-rule="evenodd"/><path stroke="#000000" stroke-width="1.0" stroke-linejoin="round" stroke-linecap="butt" d="m267.14197 120.04873l0 5.6377945" fill-rule="evenodd"/><path fill="#000000" fill-opacity="0.0" d="m281.32285 122.72572l-0.31497192 0.28346252" fill-rule="evenodd"/><path stroke="#434343" stroke-width="1.0" stroke-linejoin="round" stroke-linecap="butt" d="m281.32285 122.72572l-0.31497192 0.28346252" fill-rule="evenodd"/><path stroke="#434343" stroke-width="1.0" stroke-linecap="butt" d="m281.00787 124.66092l4.538086 -1.6517334l-4.538086 -1.6517334z" fill-rule="evenodd"/><path fill="#000000" fill-opacity="0.0" d="m261.73593 120.04744l0 5.6377945" fill-rule="evenodd"/><path stroke="#000000" stroke-width="1.0" stroke-linejoin="round" stroke-linecap="butt" d="m261.73593 120.04744l0 5.6377945" fill-rule="evenodd"/><path fill="#000000" fill-opacity="0.0" d="m268.89264 120.04873l0 5.6377945" fill-rule="evenodd"/><path stroke="#000000" stroke-width="1.0" stroke-linejoin="round" stroke-linecap="butt" d="m268.89264 120.04873l0 5.6377945" fill-rule="evenodd"/><path fill="#000000" fill-opacity="0.0" d="m238.29158 120.04873l0 5.6377945" fill-rule="evenodd"/><path stroke="#000000" stroke-width="1.0" stroke-linejoin="round" stroke-linecap="butt" d="m238.29158 120.04873l0 5.6377945" fill-rule="evenodd"/><path fill="#efefef" d="m346.5866 105.25974l38.551178 0l0 5.6377945l-38.551178 0z" fill-rule="evenodd"/><path fill="#000000" fill-opacity="0.0" d="m351.25427 105.26005l0 5.6377945" fill-rule="evenodd"/><path stroke="#000000" stroke-width="1.0" stroke-linejoin="round" stroke-linecap="butt" d="m351.25427 105.26005l0 5.6377945" fill-rule="evenodd"/><path fill="#000000" fill-opacity="0.0" d="m382.753 105.26005l0 5.6377945" fill-rule="evenodd"/><path stroke="#000000" stroke-width="1.0" stroke-linejoin="round" stroke-linecap="butt" d="m382.753 105.26005l0 5.6377945" fill-rule="evenodd"/><path fill="#000000" fill-opacity="0.0" d="m363.68488 105.26005l0 5.6377945" fill-rule="evenodd"/><path stroke="#000000" stroke-width="1.0" stroke-linejoin="round" stroke-linecap="butt" d="m363.68488 105.26005l0 5.6377945" fill-rule="evenodd"/><path fill="#000000" fill-opacity="0.0" d="m329.97113 108.272964l-0.31497192 0.28346252" fill-rule="evenodd"/><path stroke="#434343" stroke-width="1.0" stroke-linejoin="round" stroke-linecap="butt" d="m329.97113 108.272964l-0.31497192 0.28346252" fill-rule="evenodd"/><path stroke="#434343" stroke-width="1.0" stroke-linecap="butt" d="m329.65616 110.20816l4.5381165 -1.6517334l-4.5381165 -1.6517258z" fill-rule="evenodd"/><path fill="#efefef" d="m346.83334 51.94215l38.551178 0l0 5.6377945l-38.551178 0z" fill-rule="evenodd"/><path fill="#000000" fill-opacity="0.0" d="m366.153 51.94245l0 5.6377945" fill-rule="evenodd"/><path stroke="#000000" stroke-width="1.0" stroke-linejoin="round" stroke-linecap="butt" d="m366.153 51.94245l0 5.6377945" fill-rule="evenodd"/><path fill="#000000" fill-opacity="0.0" d="m374.52185 51.94245l0 5.6377945" fill-rule="evenodd"/><path stroke="#000000" stroke-width="1.0" stroke-linejoin="round" stroke-linecap="butt" d="m374.52185 51.94245l0 5.6377945" fill-rule="evenodd"/><path fill="#000000" fill-opacity="0.0" d="m329.72177 54.95538l-0.3149414 0.28346634" fill-rule="evenodd"/><path stroke="#434343" stroke-width="1.0" stroke-linejoin="round" stroke-linecap="butt" d="m329.72177 54.95538l-0.3149414 0.28346634" fill-rule="evenodd"/><path stroke="#434343" stroke-width="1.0" stroke-linecap="butt" d="m329.40683 56.89058l4.538086 -1.6517334l-4.538086 -1.6517334z" fill-rule="evenodd"/><path fill="#000000" fill-opacity="0.0" d="m351.96805 51.939827l0 5.6377945" fill-rule="evenodd"/><path stroke="#000000" stroke-width="1.0" stroke-linejoin="round" stroke-linecap="butt" d="m351.96805 51.939827l0 5.6377945" fill-rule="evenodd"/><path fill="#000000" fill-opacity="0.0" d="m382.41965 51.939827l0 5.6377945" fill-rule="evenodd"/><path stroke="#000000" stroke-width="1.0" stroke-linejoin="round" stroke-linecap="butt" d="m382.41965 51.939827l0 5.6377945" fill-rule="evenodd"/><path fill="#000000" fill-opacity="0.0" d="m347.18082 105.26003l0 5.637802" fill-rule="evenodd"/><path stroke="#000000" stroke-width="1.0" stroke-linejoin="round" stroke-linecap="butt" d="m347.18082 105.26003l0 5.637802" fill-rule="evenodd"/><path fill="#efefef" d="m346.46063 120.03268l38.551178 0l0 5.6377945l-38.551178 0z" fill-rule="evenodd"/><path fill="#000000" fill-opacity="0.0" d="m353.99466 120.03298l0 5.6377945" fill-rule="evenodd"/><path stroke="#000000" stroke-width="1.0" stroke-linejoin="round" stroke-linecap="butt" d="m353.99466 120.03298l0 5.6377945" fill-rule="evenodd"/><path fill="#000000" fill-opacity="0.0" d="m365.7357 120.03298l0 5.6377945" fill-rule="evenodd"/><path stroke="#000000" stroke-width="1.0" stroke-linejoin="round" stroke-linecap="butt" d="m365.7357 120.03298l0 5.6377945" fill-rule="evenodd"/><path fill="#000000" fill-opacity="0.0" d="m367.78693 120.03298l0 5.6377945" fill-rule="evenodd"/><path stroke="#000000" stroke-width="1.0" stroke-linejoin="round" stroke-linecap="butt" d="m367.78693 120.03298l0 5.6377945" fill-rule="evenodd"/><path fill="#000000" fill-opacity="0.0" d="m330.0971 123.04593l-0.3149414 0.28347015" fill-rule="evenodd"/><path stroke="#434343" stroke-width="1.0" stroke-linejoin="round" stroke-linecap="butt" d="m330.0971 123.04593l-0.3149414 0.28347015" fill-rule="evenodd"/><path stroke="#434343" stroke-width="1.0" stroke-linecap="butt" d="m329.78217 124.98113l4.538086 -1.6517334l-4.538086 -1.6517334z" fill-rule="evenodd"/><path fill="#000000" fill-opacity="0.0" d="m373.9824 120.03169l0 5.6377945" fill-rule="evenodd"/><path stroke="#000000" stroke-width="1.0" stroke-linejoin="round" stroke-linecap="butt" d="m373.9824 120.03169l0 5.6377945" fill-rule="evenodd"/><path fill="#000000" fill-opacity="0.0" d="m300.5813 261.7967l0 0c-4.251831 -4.2518005 -6.492798 -10.166183 -6.22995 -16.442001c0.2628479 -6.275833 3.0079956 -12.399033 7.631531 -17.022568l16.031494 16.031494z" fill-rule="evenodd"/><path fill="#000000" fill-opacity="0.0" d="m300.5813 261.7967l0 0c-4.251831 -4.2518005 -6.492798 -10.166183 -6.22995 -16.442001c0.2628479 -6.275833 3.0079956 -12.399033 7.631531 -17.022568" fill-rule="evenodd"/><path stroke="#666666" stroke-width="1.0" stroke-linejoin="round" stroke-linecap="butt" d="m300.5813 261.7967l0 0c-4.251831 -4.2518005 -6.492798 -10.166183 -6.22995 -16.442001c0.2628479 -6.275833 3.0079956 -12.399033 7.631531 -17.022568" fill-rule="evenodd"/><path fill="#000000" fill-opacity="0.0" d="m311.37796 179.58269l0 0c4.143219 4.1348724 6.3265076 9.890625 6.06958 16.001053c-0.256958 6.110443 -2.933075 12.075027 -7.4396667 16.58162l-15.62204 -15.590546z" fill-rule="evenodd"/><path fill="#000000" fill-opacity="0.0" d="m311.37796 179.58269l0 0c4.143219 4.1348724 6.3265076 9.890625 6.06958 16.001053c-0.256958 6.110443 -2.933075 12.075027 -7.4396667 16.58162" fill-rule="evenodd"/><path stroke="#d95e10" stroke-width="2.0" stroke-linejoin="round" stroke-linecap="butt" d="m311.37796 179.58269l0 0c4.143219 4.1348724 6.3265076 9.890625 6.06958 16.001053c-0.256958 6.110443 -2.933075 12.075027 -7.4396667 16.58162" fill-rule="evenodd"/><path fill="#000000" fill-opacity="0.0" d="m311.7327 179.59583l0 0c2.0006104 1.9964447 3.11792 4.7124786 3.106079 7.5506287c-0.011810303 2.83815 -1.1517639 5.565918 -3.1690674 7.5832367l-7.5433044 -7.5275574z" fill-rule="evenodd"/><path fill="#000000" fill-opacity="0.0" d="m311.7327 179.59583l0 0c2.0006104 1.9964447 3.11792 4.7124786 3.106079 7.5506287c-0.011810303 2.83815 -1.1517639 5.565918 -3.1690674 7.5832367" fill-rule="evenodd"/><path stroke="#d95e10" stroke-width="2.0" stroke-linejoin="round" stroke-linecap="butt" d="m311.7327 179.59583l0 0c2.0006104 1.9964447 3.11792 4.7124786 3.106079 7.5506287c-0.011810303 2.83815 -1.1517639 5.565918 -3.1690674 7.5832367" fill-rule="evenodd"/><path fill="#000000" fill-opacity="0.0" d="m301.40665 243.52492l0 0c-3.5710144 -3.5710144 -5.5108337 -8.480743 -5.3927 -13.649063c0.118133545 -5.1683197 2.284546 -10.17189 6.022644 -13.909988l13.464539 13.464569z" fill-rule="evenodd"/><path fill="#000000" fill-opacity="0.0" d="m301.40665 243.52492l0 0c-3.5710144 -3.5710144 -5.5108337 -8.480743 -5.3927 -13.649063c0.118133545 -5.1683197 2.284546 -10.17189 6.022644 -13.909988" fill-rule="evenodd"/><path stroke="#666666" stroke-width="1.0" stroke-linejoin="round" stroke-linecap="butt" d="m301.40665 243.52492l0 0c-3.5710144 -3.5710144 -5.5108337 -8.480743 -5.3927 -13.649063c0.118133545 -5.1683197 2.284546 -10.17189 6.022644 -13.909988" fill-rule="evenodd"/><path fill="#f3f3f3" d="m300.81888 262.03098l0 0c0 -3.0440674 2.4677124 -5.5118103 5.5118103 -5.5118103l0 0c1.4618225 0 2.8637695 0.580719 3.8974304 1.6143799c1.0336914 1.0336609 1.6143799 2.435608 1.6143799 3.8974304l0 0c0 3.044098 -2.4677124 5.5118103 -5.5118103 5.5118103l0 0c-3.044098 0 -5.5118103 -2.4677124 -5.5118103 -5.5118103z" fill-rule="evenodd"/><path stroke="#434343" stroke-width="1.0" stroke-linejoin="round" stroke-linecap="butt" d="m300.81888 262.03098l0 0c0 -3.0440674 2.4677124 -5.5118103 5.5118103 -5.5118103l0 0c1.4618225 0 2.8637695 0.580719 3.8974304 1.6143799c1.0336914 1.0336609 1.6143799 2.435608 1.6143799 3.8974304l0 0c0 3.044098 -2.4677124 5.5118103 -5.5118103 5.5118103l0 0c-3.044098 0 -5.5118103 -2.4677124 -5.5118103 -5.5118103z" fill-rule="evenodd"/><path fill="#f3f3f3" d="m300.81888 246.05019l0 0c0 -3.0440826 2.4677124 -5.5118103 5.5118103 -5.5118103l0 0c1.4618225 0 2.8637695 0.58070374 3.8974304 1.6143799c1.0336914 1.0336609 1.6143799 2.435608 1.6143799 3.8974304l0 0c0 3.044098 -2.4677124 5.5118103 -5.5118103 5.5118103l0 0c-3.044098 0 -5.5118103 -2.4677124 -5.5118103 -5.5118103z" fill-rule="evenodd"/><path stroke="#434343" stroke-width="1.0" stroke-linejoin="round" stroke-linecap="butt" d="m300.81888 246.05019l0 0c0 -3.0440826 2.4677124 -5.5118103 5.5118103 -5.5118103l0 0c1.4618225 0 2.8637695 0.58070374 3.8974304 1.6143799c1.0336914 1.0336609 1.6143799 2.435608 1.6143799 3.8974304l0 0c0 3.044098 -2.4677124 5.5118103 -5.5118103 5.5118103l0 0c-3.044098 0 -5.5118103 -2.4677124 -5.5118103 -5.5118103z" fill-rule="evenodd"/><path fill="#fce5cd" d="m300.81888 229.14871l0 0c0 -3.0440826 2.4677124 -5.5118103 5.5118103 -5.5118103l0 0c1.4618225 0 2.8637695 0.58070374 3.8974304 1.6143799c1.0336914 1.0336609 1.6143799 2.435608 1.6143799 3.8974304l0 0c0 3.044098 -2.4677124 5.5118103 -5.5118103 5.5118103l0 0c-3.044098 0 -5.5118103 -2.4677124 -5.5118103 -5.5118103z" fill-rule="evenodd"/><path stroke="#434343" stroke-width="1.0" stroke-linejoin="round" stroke-linecap="butt" d="m300.81888 229.14871l0 0c0 -3.0440826 2.4677124 -5.5118103 5.5118103 -5.5118103l0 0c1.4618225 0 2.8637695 0.58070374 3.8974304 1.6143799c1.0336914 1.0336609 1.6143799 2.435608 1.6143799 3.8974304l0 0c0 3.044098 -2.4677124 5.5118103 -5.5118103 5.5118103l0 0c-3.044098 0 -5.5118103 -2.4677124 -5.5118103 -5.5118103z" fill-rule="evenodd"/><path fill="#fce5cd" d="m300.81888 212.24724l0 0c0 -3.0440826 2.4677124 -5.5118103 5.5118103 -5.5118103l0 0c1.4618225 0 2.8637695 0.58070374 3.8974304 1.6143646c1.0336914 1.0336761 1.6143799 2.4356232 1.6143799 3.8974457l0 0c0 3.0440826 -2.4677124 5.5118103 -5.5118103 5.5118103l0 0c-3.044098 0 -5.5118103 -2.4677277 -5.5118103 -5.5118103z" fill-rule="evenodd"/><path stroke="#434343" stroke-width="1.0" stroke-linejoin="round" stroke-linecap="butt" d="m300.81888 212.24724l0 0c0 -3.0440826 2.4677124 -5.5118103 5.5118103 -5.5118103l0 0c1.4618225 0 2.8637695 0.58070374 3.8974304 1.6143646c1.0336914 1.0336761 1.6143799 2.4356232 1.6143799 3.8974457l0 0c0 3.0440826 -2.4677124 5.5118103 -5.5118103 5.5118103l0 0c-3.044098 0 -5.5118103 -2.4677277 -5.5118103 -5.5118103z" fill-rule="evenodd"/><path fill="#fce5cd" d="m300.81888 195.34576l0 0c0 -3.044098 2.4677124 -5.5118103 5.5118103 -5.5118103l0 0c1.4618225 0 2.8637695 0.58070374 3.8974304 1.6143646c1.0336914 1.0336761 1.6143799 2.4356232 1.6143799 3.8974457l0 0c0 3.0440826 -2.4677124 5.5118103 -5.5118103 5.5118103l0 0c-3.044098 0 -5.5118103 -2.4677277 -5.5118103 -5.5118103z" fill-rule="evenodd"/><path stroke="#434343" stroke-width="1.0" stroke-linejoin="round" stroke-linecap="butt" d="m300.81888 195.34576l0 0c0 -3.044098 2.4677124 -5.5118103 5.5118103 -5.5118103l0 0c1.4618225 0 2.8637695 0.58070374 3.8974304 1.6143646c1.0336914 1.0336761 1.6143799 2.4356232 1.6143799 3.8974457l0 0c0 3.0440826 -2.4677124 5.5118103 -5.5118103 5.5118103l0 0c-3.044098 0 -5.5118103 -2.4677277 -5.5118103 -5.5118103z" fill-rule="evenodd"/><path fill="#fce5cd" d="m300.81888 178.44429l0 0c0 -3.044098 2.4677124 -5.5118103 5.5118103 -5.5118103l0 0c1.4618225 0 2.8637695 0.58070374 3.8974304 1.6143646c1.0336914 1.0336609 1.6143799 2.4356232 1.6143799 3.8974457l0 0c0 3.0440826 -2.4677124 5.5118103 -5.5118103 5.5118103l0 0c-3.044098 0 -5.5118103 -2.4677277 -5.5118103 -5.5118103z" fill-rule="evenodd"/><path stroke="#434343" stroke-width="1.0" stroke-linejoin="round" stroke-linecap="butt" d="m300.81888 178.44429l0 0c0 -3.044098 2.4677124 -5.5118103 5.5118103 -5.5118103l0 0c1.4618225 0 2.8637695 0.58070374 3.8974304 1.6143646c1.0336914 1.0336609 1.6143799 2.4356232 1.6143799 3.8974457l0 0c0 3.0440826 -2.4677124 5.5118103 -5.5118103 5.5118103l0 0c-3.044098 0 -5.5118103 -2.4677277 -5.5118103 -5.5118103z" fill-rule="evenodd"/><path fill="#efefef" d="m234.33595 243.16788l38.551193 0l0 5.637802l-38.551193 0z" fill-rule="evenodd"/><path fill="#000000" fill-opacity="0.0" d="m242.02197 243.16818l0 5.637802" fill-rule="evenodd"/><path stroke="#000000" stroke-width="1.0" stroke-linejoin="round" stroke-linecap="butt" d="m242.02197 243.16818l0 5.637802" fill-rule="evenodd"/><path fill="#000000" fill-opacity="0.0" d="m270.50232 243.16818l0 5.637802" fill-rule="evenodd"/><path stroke="#000000" stroke-width="1.0" stroke-linejoin="round" stroke-linecap="butt" d="m270.50232 243.16818l0 5.637802" fill-rule="evenodd"/><path fill="#000000" fill-opacity="0.0" d="m280.14697 245.84514l-0.3149414 0.28347778" fill-rule="evenodd"/><path stroke="#434343" stroke-width="1.0" stroke-linejoin="round" stroke-linecap="butt" d="m280.14697 245.84514l-0.3149414 0.28347778" fill-rule="evenodd"/><path stroke="#434343" stroke-width="1.0" stroke-linecap="butt" d="m279.83203 247.78033l4.538086 -1.6517181l-4.538086 -1.6517334z" fill-rule="evenodd"/><path fill="#efefef" d="m234.58267 189.85028l38.551178 0l0 5.637802l-38.551178 0z" fill-rule="evenodd"/><path fill="#000000" fill-opacity="0.0" d="m253.90234 189.85059l0 5.637802" fill-rule="evenodd"/><path stroke="#000000" stroke-width="1.0" stroke-linejoin="round" stroke-linecap="butt" d="m253.90234 189.85059l0 5.637802" fill-rule="evenodd"/><path fill="#000000" fill-opacity="0.0" d="m261.94836 189.6078l0 5.637802" fill-rule="evenodd"/><path stroke="#000000" stroke-width="1.0" stroke-linejoin="round" stroke-linecap="butt" d="m261.94836 189.6078l0 5.637802" fill-rule="evenodd"/><path fill="#000000" fill-opacity="0.0" d="m263.57596 189.6078l0 5.637802" fill-rule="evenodd"/><path stroke="#000000" stroke-width="1.0" stroke-linejoin="round" stroke-linecap="butt" d="m263.57596 189.6078l0 5.637802" fill-rule="evenodd"/><path fill="#000000" fill-opacity="0.0" d="m279.89764 192.52756l-0.31497192 0.28346252" fill-rule="evenodd"/><path stroke="#434343" stroke-width="1.0" stroke-linejoin="round" stroke-linecap="butt" d="m279.89764 192.52756l-0.31497192 0.28346252" fill-rule="evenodd"/><path stroke="#434343" stroke-width="1.0" stroke-linecap="butt" d="m279.58267 194.46275l4.5381165 -1.6517334l-4.5381165 -1.6517334z" fill-rule="evenodd"/><path fill="#000000" fill-opacity="0.0" d="m239.71738 189.84796l0 5.637802" fill-rule="evenodd"/><path stroke="#000000" stroke-width="1.0" stroke-linejoin="round" stroke-linecap="butt" d="m239.71738 189.84796l0 5.637802" fill-rule="evenodd"/><path fill="#000000" fill-opacity="0.0" d="m246.61256 243.16817l0 5.637802" fill-rule="evenodd"/><path stroke="#000000" stroke-width="1.0" stroke-linejoin="round" stroke-linecap="butt" d="m246.61256 243.16817l0 5.637802" fill-rule="evenodd"/><path fill="#000000" fill-opacity="0.0" d="m267.96164 243.16817l0 5.637802" fill-rule="evenodd"/><path stroke="#000000" stroke-width="1.0" stroke-linejoin="round" stroke-linecap="butt" d="m267.96164 243.16817l0 5.637802" fill-rule="evenodd"/><path fill="#efefef" d="m234.20998 257.94083l38.551193 0l0 5.637787l-38.551193 0z" fill-rule="evenodd"/><path fill="#000000" fill-opacity="0.0" d="m240.2162 257.9411l0 5.6378174" fill-rule="evenodd"/><path stroke="#000000" stroke-width="1.0" stroke-linejoin="round" stroke-linecap="butt" d="m240.2162 257.9411l0 5.6378174" fill-rule="evenodd"/><path fill="#000000" fill-opacity="0.0" d="m250.13771 257.93848l0 5.6378174" fill-rule="evenodd"/><path stroke="#000000" stroke-width="1.0" stroke-linejoin="round" stroke-linecap="butt" d="m250.13771 257.93848l0 5.6378174" fill-rule="evenodd"/><path fill="#000000" fill-opacity="0.0" d="m255.53629 257.9411l0 5.6378174" fill-rule="evenodd"/><path stroke="#000000" stroke-width="1.0" stroke-linejoin="round" stroke-linecap="butt" d="m255.53629 257.9411l0 5.6378174" fill-rule="evenodd"/><path fill="#000000" fill-opacity="0.0" d="m266.0921 257.9411l0 5.6378174" fill-rule="evenodd"/><path stroke="#000000" stroke-width="1.0" stroke-linejoin="round" stroke-linecap="butt" d="m266.0921 257.9411l0 5.6378174" fill-rule="evenodd"/><path fill="#000000" fill-opacity="0.0" d="m280.27298 260.6181l-0.31497192 0.28347778" fill-rule="evenodd"/><path stroke="#434343" stroke-width="1.0" stroke-linejoin="round" stroke-linecap="butt" d="m280.27298 260.6181l-0.31497192 0.28347778" fill-rule="evenodd"/><path stroke="#434343" stroke-width="1.0" stroke-linecap="butt" d="m279.958 262.5533l4.538086 -1.6517334l-4.538086 -1.6517334z" fill-rule="evenodd"/><path fill="#efefef" d="m346.05774 243.1705l38.551178 0l0 5.637802l-38.551178 0z" fill-rule="evenodd"/><path fill="#000000" fill-opacity="0.0" d="m363.686 243.16818l0 5.637802" fill-rule="evenodd"/><path stroke="#000000" stroke-width="1.0" stroke-linejoin="round" stroke-linecap="butt" d="m363.686 243.16818l0 5.637802" fill-rule="evenodd"/><path fill="#000000" fill-opacity="0.0" d="m376.26874 243.16818l0 5.637802" fill-rule="evenodd"/><path stroke="#000000" stroke-width="1.0" stroke-linejoin="round" stroke-linecap="butt" d="m376.26874 243.16818l0 5.637802" fill-rule="evenodd"/><path fill="#000000" fill-opacity="0.0" d="m328.91864 245.84776l-0.31497192 0.28347778" fill-rule="evenodd"/><path stroke="#434343" stroke-width="1.0" stroke-linejoin="round" stroke-linecap="butt" d="m328.91864 245.84776l-0.31497192 0.28347778" fill-rule="evenodd"/><path stroke="#434343" stroke-width="1.0" stroke-linecap="butt" d="m328.60367 247.78296l4.5381165 -1.6517181l-4.5381165 -1.6517334z" fill-rule="evenodd"/><path fill="#efefef" d="m346.30447 189.8529l38.551178 0l0 5.637802l-38.551178 0z" fill-rule="evenodd"/><path fill="#000000" fill-opacity="0.0" d="m328.66928 192.53018l-0.3149414 0.28346252" fill-rule="evenodd"/><path stroke="#434343" stroke-width="1.0" stroke-linejoin="round" stroke-linecap="butt" d="m328.66928 192.53018l-0.3149414 0.28346252" fill-rule="evenodd"/><path stroke="#434343" stroke-width="1.0" stroke-linecap="butt" d="m328.35434 194.46538l4.538086 -1.6517334l-4.538086 -1.6517334z" fill-rule="evenodd"/><path fill="#000000" fill-opacity="0.0" d="m351.25543 189.85321l0 5.637802" fill-rule="evenodd"/><path stroke="#000000" stroke-width="1.0" stroke-linejoin="round" stroke-linecap="butt" d="m351.25543 189.85321l0 5.637802" fill-rule="evenodd"/><path fill="#000000" fill-opacity="0.0" d="m371.2635 189.85321l0 5.637802" fill-rule="evenodd"/><path stroke="#000000" stroke-width="1.0" stroke-linejoin="round" stroke-linecap="butt" d="m371.2635 189.85321l0 5.637802" fill-rule="evenodd"/><path fill="#efefef" d="m345.93176 257.94345l38.551178 0l0 5.637787l-38.551178 0z" fill-rule="evenodd"/><path fill="#000000" fill-opacity="0.0" d="m365.20682 257.94373l0 5.6378174" fill-rule="evenodd"/><path stroke="#000000" stroke-width="1.0" stroke-linejoin="round" stroke-linecap="butt" d="m365.20682 257.94373l0 5.6378174" fill-rule="evenodd"/><path fill="#000000" fill-opacity="0.0" d="m367.25806 257.94373l0 5.6378174" fill-rule="evenodd"/><path stroke="#000000" stroke-width="1.0" stroke-linejoin="round" stroke-linecap="butt" d="m367.25806 257.94373l0 5.6378174" fill-rule="evenodd"/><path fill="#000000" fill-opacity="0.0" d="m329.04462 260.62073l-0.31497192 0.28347778" fill-rule="evenodd"/><path stroke="#434343" stroke-width="1.0" stroke-linejoin="round" stroke-linecap="butt" d="m329.04462 260.62073l-0.31497192 0.28347778" fill-rule="evenodd"/><path stroke="#434343" stroke-width="1.0" stroke-linecap="butt" d="m328.72964 262.55594l4.5381165 -1.6517334l-4.5381165 -1.6517334z" fill-rule="evenodd"/><path fill="#000000" fill-opacity="0.0" d="m37.262466 -5.233596l161.82677 0l0 35.559055l-161.82677 0z" fill-rule="evenodd"/><path fill="#000000" d="m77.30153 16.566404l0 -9.546876l6.53125 0l0 1.625l-4.609375 0l0 2.25l3.984375 0l0 1.625l-3.984375 0l0 4.046876l-1.921875 0zm9.485107 -4.796876l-1.671875 -0.3125q0.28125 -1.0 0.96875 -1.46875q0.6875 -0.484375 2.03125 -0.484375q1.21875 0 1.8125 0.296875q0.609375 0.28125 0.84375 0.734375q0.25 0.4375 0.25 1.625l-0.015625 2.140625q0 0.90625 0.078125 1.34375q0.09375 0.42187595 0.34375 0.92187595l-1.8125 0q-0.078125 -0.1875 -0.171875 -0.546875q-0.046875 -0.15625095 -0.078125 -0.20312595q-0.46875 0.45312595 -1.0 0.68750095q-0.53125 0.21875 -1.140625 0.21875q-1.0625 0 -1.6875 -0.578125q-0.609375 -0.57812595 -0.609375 -1.468751q0 -0.578125 0.28125 -1.03125q0.28125 -0.46875 0.78125 -0.703125q0.515625 -0.25 1.46875 -0.4375q1.28125 -0.234375 1.765625 -0.453125l0 -0.171875q0 -0.53125 -0.265625 -0.75q-0.25 -0.234375 -0.96875 -0.234375q-0.484375 0 -0.765625 0.203125q-0.265625 0.1875 -0.4375 0.671875zm2.4375 1.484375q-0.34375 0.109375 -1.109375 0.28125q-0.765625 0.15625 -1.0 0.3125q-0.359375 0.25 -0.359375 0.640625q0 0.390625 0.28125 0.671875q0.296875 0.28125 0.734375 0.28125q0.5 0 0.953125 -0.328125q0.328125 -0.25 0.4375 -0.609375q0.0625 -0.234375 0.0625 -0.890625l0 -0.359375zm3.4593506 -3.59375l1.6875 0l0 0.9375q0.90625 -1.09375 2.15625 -1.09375q0.671875 0 1.15625 0.28125q0.484375 0.265625 0.796875 0.8125q0.453125 -0.546875 0.984375 -0.8125q0.53125 -0.28125 1.125 -0.28125q0.765625 0 1.28125 0.3125q0.53125 0.296875 0.796875 0.90625q0.1875 0.4375 0.1875 1.421875l0 4.421876l-1.828125 0l0 -3.953126q0 -1.03125 -0.1875 -1.328125q-0.25 -0.390625 -0.78125 -0.390625q-0.390625 0 -0.734375 0.234375q-0.328125 0.234375 -0.484375 0.6875q-0.140625 0.453125 -0.140625 1.4375l0 3.312501l-1.828125 0l0 -3.781251q0 -1.015625 -0.109375 -1.296875q-0.09375 -0.296875 -0.296875 -0.4375q-0.203125 -0.15625 -0.546875 -0.15625q-0.421875 0 -0.765625 0.234375q-0.34375 0.21875 -0.484375 0.65625q-0.140625 0.421875 -0.140625 1.421875l0 3.359376l-1.84375 0l0 -6.906251zm11.99147 -0.9375l0 -1.703125l1.828125 0l0 1.703125l-1.828125 0zm0 7.843751l0 -6.906251l1.828125 0l0 6.906251l-1.828125 0zm3.7029877 0l0 -9.546876l1.828125 0l0 9.546876l-1.828125 0zm3.7029877 -7.843751l0 -1.703125l1.828125 0l0 1.703125l-1.828125 0zm0 7.843751l0 -6.906251l1.828125 0l0 6.906251l-1.828125 0zm5.0779877 -4.796876l-1.671875 -0.3125q0.28125 -1.0 0.96875 -1.46875q0.6875 -0.484375 2.03125 -0.484375q1.21875 0 1.8125 0.296875q0.609375 0.28125 0.84375 0.734375q0.25 0.4375 0.25 1.625l-0.015625 2.140625q0 0.90625 0.078125 1.34375q0.09375 0.42187595 0.34375 0.92187595l-1.8125 0q-0.078125 -0.1875 -0.171875 -0.546875q-0.046875 -0.15625095 -0.078125 -0.20312595q-0.46875 0.45312595 -1.0 0.68750095q-0.53125 0.21875 -1.140625 0.21875q-1.0625 0 -1.6875 -0.578125q-0.609375 -0.57812595 -0.609375 -1.468751q0 -0.578125 0.28125 -1.03125q0.28125 -0.46875 0.78125 -0.703125q0.515625 -0.25 1.46875 -0.4375q1.28125 -0.234375 1.765625 -0.453125l0 -0.171875q0 -0.53125 -0.265625 -0.75q-0.25 -0.234375 -0.96875 -0.234375q-0.484375 0 -0.765625 0.203125q-0.265625 0.1875 -0.4375 0.671875zm2.4375 1.484375q-0.34375 0.109375 -1.109375 0.28125q-0.765625 0.15625 -1.0 0.3125q-0.359375 0.25 -0.359375 0.640625q0 0.390625 0.28125 0.671875q0.296875 0.28125 0.734375 0.28125q0.5 0 0.953125 -0.328125q0.328125 -0.25 0.4375 -0.609375q0.0625 -0.234375 0.0625 -0.890625l0 -0.359375zm5.3499756 3.312501l-1.828125 0l0 -6.906251l1.703125 0l0 0.984375q0.4375 -0.703125 0.78125 -0.921875q0.34375 -0.21875 0.796875 -0.21875q0.625 0 1.203125 0.34375l-0.5625 1.59375q-0.46875 -0.296875 -0.859375 -0.296875q-0.390625 0 -0.65625 0.21875q-0.265625 0.203125 -0.421875 0.765625q-0.15625 0.546875 -0.15625 2.296875l0 2.140626z" fill-rule="nonzero"/><path fill="#000000" d="m132.02367 8.378903l0 -1.359375l1.171875 0l0 1.359375l-1.171875 0zm0 8.187501l0 -6.906251l1.171875 0l0 6.906251l-1.171875 0zm2.945465 0l0 -6.906251l1.0625 0l0 0.984375q0.75 -1.140625 2.1875 -1.140625q0.625 0 1.15625 0.21875q0.53125 0.21875 0.78125 0.59375q0.265625 0.359375 0.375 0.859375q0.0625 0.328125 0.0625 1.140625l0 4.250001l-1.171875 0l0 -4.203126q0 -0.71875 -0.140625 -1.0625q-0.140625 -0.359375 -0.484375 -0.5625q-0.34375 -0.21875 -0.8125 -0.21875q-0.75 0 -1.296875 0.46875q-0.546875 0.46875 -0.546875 1.796875l0 3.781251l-1.171875 0zm7.4124756 2.65625l0 -9.562501l1.078125 0l0 0.890625q0.375 -0.53125 0.84375 -0.78125q0.484375 -0.265625 1.15625 -0.265625q0.875 0 1.546875 0.453125q0.6875 0.453125 1.03125 1.28125q0.34375 0.828125 0.34375 1.828125q0 1.046875 -0.375 1.90625q-0.375 0.84375 -1.109375 1.296876q-0.71875 0.453125 -1.53125 0.453125q-0.578125 0 -1.046875 -0.25q-0.46875 -0.25 -0.765625 -0.62500095l0 3.375001l-1.171875 0zm1.0625 -6.078126q0 1.34375 0.53125 1.984375q0.546875 0.625 1.3125 0.625q0.78125 0 1.34375 -0.65625q0.5625 -0.65625 0.5625 -2.046875q0 -1.3125 -0.546875 -1.96875q-0.546875 -0.671875 -1.296875 -0.671875q-0.75 0 -1.328125 0.703125q-0.578125 0.703125 -0.578125 2.03125zm10.881226 3.421876l0 -1.015626q-0.8125 1.171876 -2.1875 1.171876q-0.609375 0 -1.140625 -0.234375q-0.53125 -0.234375 -0.796875 -0.57812595q-0.25 -0.359375 -0.359375 -0.875q-0.0625 -0.34375 -0.0625 -1.09375l0 -4.28125l1.171875 0l0 3.828125q0 0.921875 0.0625 1.234375q0.109375 0.46875 0.46875 0.734375q0.359375 0.25 0.890625 0.25q0.515625 0 0.984375 -0.265625q0.46875 -0.265625 0.65625 -0.734375q0.1875 -0.46875 0.1875 -1.34375l0 -3.703125l1.171875 0l0 6.906251l-1.046875 0zm5.4437256 -1.046876l0.171875 1.031251q-0.5 0.109375 -0.890625 0.109375q-0.640625 0 -1.0 -0.203125q-0.34375 -0.203125 -0.484375 -0.53125095q-0.140625 -0.328125 -0.140625 -1.390625l0 -3.96875l-0.859375 0l0 -0.90625l0.859375 0l0 -1.71875l1.171875 -0.703125l0 2.421875l1.171875 0l0 0.90625l-1.171875 0l0 4.046875q0 0.5 0.046875 0.640625q0.0625 0.140625 0.203125 0.234375q0.140625 0.078125 0.40625 0.078125q0.203125 0 0.515625 -0.046875z" fill-rule="nonzero"/><path fill="#000000" fill-opacity="0.0" d="m227.50919 -5.233596l161.82678 0l0 35.559055l-161.82678 0z" fill-rule="evenodd"/><path fill="#000000" d="m279.40237 16.566404l0 -9.546876l1.875 0l3.90625 6.375l0 -6.375l1.796875 0l0 9.546876l-1.9375 0l-3.84375 -6.218751l0 6.218751l-1.796875 0zm13.593903 -2.203126l1.828125 0.3125q-0.34375 1.0 -1.109375 1.531251q-0.765625 0.515625 -1.890625 0.515625q-1.8125 0 -2.671875 -1.171876q-0.6875 -0.953125 -0.6875 -2.390625q0 -1.71875 0.890625 -2.6875q0.90625 -0.96875 2.28125 -0.96875q1.546875 0 2.4375 1.015625q0.890625 1.015625 0.84375 3.125l-4.578125 0q0.015625 0.8125 0.4375 1.265625q0.421875 0.453125 1.0625 0.453125q0.421875 0 0.71875 -0.234375q0.296875 -0.234375 0.4375 -0.765625zm0.109375 -1.84375q-0.015625 -0.796875 -0.40625 -1.203125q-0.390625 -0.421875 -0.953125 -0.421875q-0.59375 0 -0.984375 0.4375q-0.390625 0.4375 -0.390625 1.1875l2.734375 0zm4.5999756 4.046876l-2.1875 -6.906251l1.765625 0l1.296875 4.53125l1.203125 -4.53125l1.75 0l1.15625 4.53125l1.328125 -4.53125l1.796875 0l-2.21875 6.906251l-1.75 0l-1.203125 -4.437501l-1.171875 4.437501l-1.765625 0z" fill-rule="nonzero"/><path fill="#000000" d="m310.4163 8.378903l0 -1.359375l1.171875 0l0 1.359375l-1.171875 0zm0 8.187501l0 -6.906251l1.171875 0l0 6.906251l-1.171875 0zm2.945465 0l0 -6.906251l1.0625 0l0 0.984375q0.75 -1.140625 2.1875 -1.140625q0.625 0 1.15625 0.21875q0.53125 0.21875 0.78125 0.59375q0.265625 0.359375 0.375 0.859375q0.0625 0.328125 0.0625 1.140625l0 4.250001l-1.171875 0l0 -4.203126q0 -0.71875 -0.140625 -1.0625q-0.140625 -0.359375 -0.484375 -0.5625q-0.34375 -0.21875 -0.8125 -0.21875q-0.75 0 -1.296875 0.46875q-0.546875 0.46875 -0.546875 1.796875l0 3.781251l-1.171875 0zm7.4124756 2.65625l0 -9.562501l1.078125 0l0 0.890625q0.375 -0.53125 0.84375 -0.78125q0.484375 -0.265625 1.15625 -0.265625q0.875 0 1.546875 0.453125q0.6875 0.453125 1.03125 1.28125q0.34375 0.828125 0.34375 1.828125q0 1.046875 -0.375 1.90625q-0.375 0.84375 -1.109375 1.296876q-0.71875 0.453125 -1.53125 0.453125q-0.578125 0 -1.046875 -0.25q-0.46875 -0.25 -0.765625 -0.62500095l0 3.375001l-1.171875 0zm1.0625 -6.078126q0 1.34375 0.53125 1.984375q0.546875 0.625 1.3125 0.625q0.78125 0 1.34375 -0.65625q0.5625 -0.65625 0.5625 -2.046875q0 -1.3125 -0.546875 -1.96875q-0.546875 -0.671875 -1.296875 -0.671875q-0.75 0 -1.328125 0.703125q-0.578125 0.703125 -0.578125 2.03125zm10.881226 3.421876l0 -1.015626q-0.8125 1.171876 -2.1875 1.171876q-0.609375 0 -1.140625 -0.234375q-0.53125 -0.234375 -0.796875 -0.57812595q-0.25 -0.359375 -0.359375 -0.875q-0.0625 -0.34375 -0.0625 -1.09375l0 -4.28125l1.171875 0l0 3.828125q0 0.921875 0.0625 1.234375q0.109375 0.46875 0.46875 0.734375q0.359375 0.25 0.890625 0.25q0.515625 0 0.984375 -0.265625q0.46875 -0.265625 0.65625 -0.734375q0.1875 -0.46875 0.1875 -1.34375l0 -3.703125l1.171875 0l0 6.906251l-1.046875 0zm5.4437256 -1.046876l0.171875 1.031251q-0.5 0.109375 -0.890625 0.109375q-0.640625 0 -1.0 -0.203125q-0.34375 -0.203125 -0.484375 -0.53125095q-0.140625 -0.328125 -0.140625 -1.390625l0 -3.96875l-0.859375 0l0 -0.90625l0.859375 0l0 -1.71875l1.171875 -0.703125l0 2.421875l1.171875 0l0 0.90625l-1.171875 0l0 4.046875q0 0.5 0.046875 0.640625q0.0625 0.140625 0.203125 0.234375q0.140625 0.078125 0.40625 0.078125q0.203125 0 0.515625 -0.046875z" fill-rule="nonzero"/><path fill="#000000" fill-opacity="0.0" d="m-3.0603673 137.07349l0 -108.06299l35.559055 0l0 108.06299z" fill-rule="evenodd"/><path fill="#000000" d="m15.630257 122.56156l-0.171875 -1.875q0.9375 -0.171875 1.390625 -0.6875q0.4375 -0.515625 0.4375 -1.390625q0 -0.9375 -0.390625 -1.40625q-0.40625 -0.46875 -0.921875 -0.46875q-0.34375 0 -0.578125 0.203125q-0.234375 0.1875 -0.421875 0.6875q-0.109375 0.34375 -0.40625 1.546875q-0.390625 1.546875 -0.953125 2.171875q-0.78125 0.875 -1.921875 0.875q-0.71875 0 -1.359375 -0.40625q-0.640625 -0.421875 -0.96875 -1.1875q-0.328125 -0.78125 -0.328125 -1.890625q0 -1.796875 0.796875 -2.703125q0.78125 -0.90625 2.09375 -0.953125l0.078125 1.921875q-0.734375 0.125 -1.046875 0.53125q-0.328125 0.40625 -0.328125 1.234375q0 0.828125 0.34375 1.3125q0.21875 0.296875 0.59375 0.296875q0.34375 0 0.578125 -0.28125q0.3125 -0.359375 0.640625 -1.765625q0.328125 -1.40625 0.6875 -2.078125q0.359375 -0.6875 0.96875 -1.0625q0.609375 -0.375 1.515625 -0.375q0.828125 0 1.546875 0.453125q0.703125 0.453125 1.0625 1.296875q0.34375 0.828125 0.34375 2.0625q0 1.8125 -0.828125 2.78125q-0.84375 0.96875 -2.453125 1.15625zm-1.6875 -10.733505l-0.3125 1.671875q-1.0 -0.28125 -1.46875 -0.96875q-0.484375 -0.6875 -0.484375 -2.03125q0 -1.21875 0.296875 -1.8125q0.28125 -0.609375 0.734375 -0.84375q0.4375 -0.25 1.625 -0.25l2.140625 0.015625q0.90625 0 1.34375 -0.078125q0.421875 -0.09375 0.921875 -0.34375l0 1.8125q-0.1875 0.078125 -0.546875 0.171875q-0.15625 0.046875 -0.203125 0.078125q0.453125 0.46875 0.6875 1.0q0.21875 0.53125 0.21875 1.140625q0 1.0625 -0.578125 1.6875q-0.578125 0.609375 -1.46875 0.609375q-0.578125 0 -1.03125 -0.28125q-0.46875 -0.28125 -0.703125 -0.78125q-0.25 -0.515625 -0.4375 -1.46875q-0.234375 -1.28125 -0.453125 -1.765625l-0.171875 0q-0.53125 0 -0.75 0.265625q-0.234375 0.25 -0.234375 0.96875q0 0.484375 0.203125 0.765625q0.1875 0.265625 0.671875 0.4375zm1.484375 -2.4375q0.109375 0.34375 0.28125 1.109375q0.15625 0.765625 0.3125 1.0q0.25 0.359375 0.640625 0.359375q0.390625 0 0.671875 -0.28125q0.28125 -0.296875 0.28125 -0.734375q0 -0.5 -0.328125 -0.953125q-0.25 -0.328125 -0.609375 -0.4375q-0.234375 -0.0625 -0.890625 -0.0625l-0.359375 0zm3.3125 -3.5999756l-9.546875 0l0 -1.828125l9.546875 0l0 1.828125zm-7.84375 -3.7029877l-1.703125 0l0 -1.828125l1.703125 0l0 1.828125zm7.84375 0l-6.90625 0l0 -1.828125l6.90625 0l0 1.828125zm-2.203125 -7.7029877l0.3125 -1.828125q1.0 0.34375 1.53125 1.109375q0.515625 0.765625 0.515625 1.890625q0 1.8125 -1.171875 2.671875q-0.953125 0.6875 -2.390625 0.6875q-1.71875 0 -2.6875 -0.890625q-0.96875 -0.90625 -0.96875 -2.28125q0 -1.546875 1.015625 -2.4375q1.015625 -0.890625 3.125 -0.84375l0 4.578125q0.8125 -0.015625 1.265625 -0.4375q0.453125 -0.421875 0.453125 -1.0625q0 -0.421875 -0.234375 -0.71875q-0.234375 -0.296875 -0.765625 -0.4375zm-1.84375 -0.109375q-0.796875 0.015625 -1.203125 0.40625q-0.421875 0.390625 -0.421875 0.953125q0 0.59375 0.4375 0.984375q0.4375 0.390625 1.1875 0.390625l0 -2.734375zm4.046875 -9.599976l0 1.828125l-3.53125 0q-1.109375 0 -1.4375 0.125q-0.328125 0.109375 -0.515625 0.375q-0.1875 0.265625 -0.1875 0.640625q0 0.46875 0.265625 0.859375q0.265625 0.375 0.703125 0.515625q0.421875 0.140625 1.578125 0.140625l3.125 0l0 1.828125l-6.90625 0l0 -1.703125l1.015625 0q-1.171875 -0.90625 -1.171875 -2.28125q0 -0.609375 0.21875 -1.109375q0.21875 -0.5 0.5625 -0.75q0.328125 -0.265625 0.765625 -0.359375q0.421875 -0.109375 1.21875 -0.109375l4.296875 0zm-6.90625 -5.0163574l1.453125 0l0 1.25l2.78125 0q0.84375 0 0.984375 -0.03125q0.140625 -0.046875 0.234375 -0.171875q0.09375 -0.125 0.09375 -0.3125q0 -0.25 -0.171875 -0.734375l1.421875 -0.15625q0.265625 0.640625 0.265625 1.453125q0 0.484375 -0.15625 0.890625q-0.171875 0.390625 -0.4375 0.578125q-0.265625 0.1875 -0.71875 0.265625q-0.3125 0.046875 -1.28125 0.046875l-3.015625 0l0 0.84375l-1.453125 0l0 -0.84375l-1.375 0l-1.078125 -1.828125l2.453125 0l0 -1.25z" fill-rule="nonzero"/><path fill="#000000" d="m10.552132 71.04893l-1.359375 0l0 -1.171875l1.359375 0l0 1.171875zm8.1875 0l-6.90625 0l0 -1.171875l6.90625 0l0 1.171875zm0 -2.945465l-6.90625 0l0 -1.0625l0.984375 0q-1.140625 -0.75 -1.140625 -2.1875q0 -0.625 0.21875 -1.1562538q0.21875 -0.53125 0.59375 -0.78125q0.359375 -0.265625 0.859375 -0.375q0.328125 -0.0625 1.140625 -0.0625l4.25 0l0 1.171875l-4.203125 0q-0.71875 0 -1.0625 0.140625q-0.359375 0.140625 -0.5625 0.4843788q-0.21875 0.34375 -0.21875 0.8125q0 0.75 0.46875 1.296875q0.46875 0.546875 1.796875 0.546875l3.78125 0l0 1.171875zm2.65625 -7.4124794l-9.5625 0l0 -1.078125l0.890625 0q-0.53125 -0.375 -0.78125 -0.84375q-0.265625 -0.484375 -0.265625 -1.15625q0 -0.875 0.453125 -1.546875q0.453125 -0.6875 1.28125 -1.03125q0.828125 -0.34375 1.828125 -0.34375q1.046875 0 1.90625 0.375q0.84375 0.375 1.296875 1.109375q0.453125 0.71875 0.453125 1.53125q0 0.578125 -0.25 1.046875q-0.25 0.46875 -0.625 0.765625l3.375 0l0 1.171875zm-6.078125 -1.0625q1.34375 0 1.984375 -0.53125q0.625 -0.546875 0.625 -1.3125q0 -0.78125 -0.65625 -1.34375q-0.65625 -0.5625 -2.046875 -0.5625q-1.3125 0 -1.96875 0.546875q-0.671875 0.546875 -0.671875 1.296875q0 0.75 0.703125 1.328125q0.703125 0.578125 2.03125 0.578125zm3.421875 -10.881226l-1.015625 0q1.171875 0.8125 1.171875 2.1875q0 0.609375 -0.234375 1.140625q-0.234375 0.53125 -0.578125 0.796875q-0.359375 0.25 -0.875 0.359375q-0.34375 0.0625 -1.09375 0.0625l-4.28125 0l0 -1.171875l3.828125 0q0.921875 0 1.234375 -0.0625q0.46875 -0.109375 0.734375 -0.46875q0.25 -0.359375 0.25 -0.890625q0 -0.515625 -0.265625 -0.984375q-0.265625 -0.46875 -0.734375 -0.65625q-0.46875 -0.1875 -1.34375 -0.1875l-3.703125 0l0 -1.171875l6.90625 0l0 1.046875zm-1.046875 -5.4437256l1.03125 -0.171875q0.109375 0.5 0.109375 0.890625q0 0.640625 -0.203125 1.0q-0.203125 0.34375 -0.53125 0.484375q-0.328125 0.140625 -1.390625 0.140625l-3.96875 0l0 0.859375l-0.90625 0l0 -0.859375l-1.71875 0l-0.703125 -1.171875l2.421875 0l0 -1.171875l0.90625 0l0 1.171875l4.046875 0q0.5 0 0.640625 -0.046875q0.140625 -0.0625 0.234375 -0.203125q0.078125 -0.140625 0.078125 -0.40625q0 -0.203125 -0.046875 -0.515625z" fill-rule="nonzero"/><path fill="#000000" fill-opacity="0.0" d="m-3.0603673 273.66928l0 -105.76376l35.559055 0l0 105.76376z" fill-rule="evenodd"/><path fill="#000000" d="m18.739632 252.04965l-9.546875 2.28125l0 -1.96875l6.5625 -1.4375l-6.5625 -1.75l0 -2.28125l6.671875 -1.671875l-6.671875 -1.46875l0 -1.9375l9.546875 2.3125l0 2.046875l-7.125 1.890625l7.125 1.90625l0 2.078125zm-2.203125 -14.963837l0.3125 -1.828125q1.0 0.34375 1.53125 1.109375q0.515625 0.765625 0.515625 1.890625q0 1.8125 -1.171875 2.671875q-0.953125 0.6875 -2.390625 0.6875q-1.71875 0 -2.6875 -0.890625q-0.96875 -0.90625 -0.96875 -2.28125q0 -1.546875 1.015625 -2.4375q1.015625 -0.890625 3.125 -0.84375l0 4.578125q0.8125 -0.015625 1.265625 -0.4375q0.453125 -0.421875 0.453125 -1.0625q0 -0.421875 -0.234375 -0.71875q-0.234375 -0.296875 -0.765625 -0.4375zm-1.84375 -0.109375q-0.796875 0.015625 -1.203125 0.40625q-0.421875 0.390625 -0.421875 0.953125q0 0.59375 0.4375 0.984375q0.4375 0.390625 1.1875 0.390625l0 -2.734375zm-0.75 -4.6781006l-0.3125 1.671875q-1.0 -0.28125 -1.46875 -0.96875q-0.484375 -0.6875 -0.484375 -2.03125q0 -1.21875 0.296875 -1.8125q0.28125 -0.609375 0.734375 -0.84375q0.4375 -0.25 1.625 -0.25l2.140625 0.015625q0.90625 0 1.34375 -0.078125q0.421875 -0.09375 0.921875 -0.34375l0 1.8125q-0.1875 0.078125 -0.546875 0.171875q-0.15625 0.046875 -0.203125 0.078125q0.453125 0.46875 0.6875 1.0q0.21875 0.53125 0.21875 1.140625q0 1.0625 -0.578125 1.6875q-0.578125 0.609375 -1.46875 0.609375q-0.578125 0 -1.03125 -0.28125q-0.46875 -0.28125 -0.703125 -0.78125q-0.25 -0.515625 -0.4375 -1.46875q-0.234375 -1.28125 -0.453125 -1.765625l-0.171875 0q-0.53125 0 -0.75 0.265625q-0.234375 0.25 -0.234375 0.96875q0 0.484375 0.203125 0.765625q0.1875 0.265625 0.671875 0.4375zm1.484375 -2.4375q0.109375 0.34375 0.28125 1.109375q0.15625 0.765625 0.3125 1.0q0.25 0.359375 0.640625 0.359375q0.390625 0 0.671875 -0.28125q0.28125 -0.296875 0.28125 -0.734375q0 -0.5 -0.328125 -0.953125q-0.25 -0.328125 -0.609375 -0.4375q-0.234375 -0.0625 -0.890625 -0.0625l-0.359375 0zm3.3125 -3.5374756l-9.546875 0l0 -1.828125l5.0625 0l-2.421875 -2.140625l0 -2.25l2.515625 2.359375l4.390625 -2.53125l0 1.96875l-3.109375 1.734375l0.890625 0.859375l2.21875 0l0 1.828125z" fill-rule="nonzero"/><path fill="#000000" d="m10.552132 215.2079l-1.359375 0l0 -1.171875l1.359375 0l0 1.171875zm8.1875 0l-6.90625 0l0 -1.171875l6.90625 0l0 1.171875zm0 -2.945465l-6.90625 0l0 -1.0625l0.984375 0q-1.140625 -0.75 -1.140625 -2.1875q0 -0.625 0.21875 -1.15625q0.21875 -0.53125 0.59375 -0.78125q0.359375 -0.265625 0.859375 -0.375q0.328125 -0.0625 1.140625 -0.0625l4.25 0l0 1.171875l-4.203125 0q-0.71875 0 -1.0625 0.140625q-0.359375 0.140625 -0.5625 0.484375q-0.21875 0.34375 -0.21875 0.8125q0 0.75 0.46875 1.296875q0.46875 0.546875 1.796875 0.546875l3.78125 0l0 1.171875zm2.65625 -7.4124756l-9.5625 0l0 -1.078125l0.890625 0q-0.53125 -0.375 -0.78125 -0.84375q-0.265625 -0.484375 -0.265625 -1.15625q0 -0.875 0.453125 -1.546875q0.453125 -0.6875 1.28125 -1.03125q0.828125 -0.34375 1.828125 -0.34375q1.046875 0 1.90625 0.375q0.84375 0.375 1.296875 1.109375q0.453125 0.71875 0.453125 1.53125q0 0.578125 -0.25 1.046875q-0.25 0.46875 -0.625 0.765625l3.375 0l0 1.171875zm-6.078125 -1.0625q1.34375 0 1.984375 -0.53125q0.625 -0.546875 0.625 -1.3125q0 -0.78125 -0.65625 -1.34375q-0.65625 -0.5625 -2.046875 -0.5625q-1.3125 0 -1.96875 0.546875q-0.671875 0.546875 -0.671875 1.296875q0 0.75 0.703125 1.328125q0.703125 0.578125 2.03125 0.578125zm3.421875 -10.881226l-1.015625 0q1.171875 0.8125 1.171875 2.1875q0 0.609375 -0.234375 1.140625q-0.234375 0.53125 -0.578125 0.796875q-0.359375 0.25 -0.875 0.359375q-0.34375 0.0625 -1.09375 0.0625l-4.28125 0l0 -1.171875l3.828125 0q0.921875 0 1.234375 -0.0625q0.46875 -0.109375 0.734375 -0.46875q0.25 -0.359375 0.25 -0.890625q0 -0.515625 -0.265625 -0.984375q-0.265625 -0.46875 -0.734375 -0.65625q-0.46875 -0.1875 -1.34375 -0.1875l-3.703125 0l0 -1.171875l6.90625 0l0 1.046875zm-1.046875 -5.4437256l1.03125 -0.171875q0.109375 0.5 0.109375 0.890625q0 0.640625 -0.203125 1.0q-0.203125 0.34375 -0.53125 0.484375q-0.328125 0.140625 -1.390625 0.140625l-3.96875 0l0 0.859375l-0.90625 0l0 -0.859375l-1.71875 0l-0.703125 -1.171875l2.421875 0l0 -1.171875l0.90625 0l0 1.171875l4.046875 0q0.5 0 0.640625 -0.046875q0.140625 -0.0625 0.234375 -0.203125q0.078125 -0.140625 0.078125 -0.40625q0 -0.203125 -0.046875 -0.515625z" fill-rule="nonzero"/><path fill="#000000" fill-opacity="0.0" d="m28.56168 -3.5958006l35.559055 0l0 35.559055l-35.559055 0z" fill-rule="evenodd"/><path fill="#000000" d="m51.106754 18.204199l-2.09375 0l-0.84375 -2.171875l-3.8125 0l-0.78125 2.171875l-2.046875 0l3.71875 -9.546875l2.03125 0l3.828125 9.546875zm-3.546875 -3.78125l-1.3125 -3.53125l-1.296875 3.53125l2.609375 0z" fill-rule="nonzero"/><path fill="#000000" fill-opacity="0.0" d="m218.19948 -3.5958006l35.55905 0l0 35.559055l-35.55905 0z" fill-rule="evenodd"/><path fill="#000000" d="m232.13518 8.657324l3.828125 0q1.125 0 1.671875 0.09375q0.5625 0.09375 1.0 0.40625q0.4375 0.296875 0.734375 0.796875q0.296875 0.5 0.296875 1.109375q0 0.671875 -0.359375 1.234375q-0.359375 0.5625 -0.984375 0.84375q0.875 0.25 1.34375 0.859375q0.46875 0.609375 0.46875 1.4375q0 0.65625 -0.3125 1.265625q-0.296875 0.609375 -0.828125 0.984375q-0.515625 0.359375 -1.28125 0.453125q-0.484375 0.046875 -2.328125 0.0625l-3.25 0l0 -9.546875zm1.9375 1.59375l0 2.203125l1.265625 0q1.125 0 1.390625 -0.03125q0.5 -0.0625 0.78125 -0.34375q0.28125 -0.28125 0.28125 -0.734375q0 -0.453125 -0.25 -0.71875q-0.234375 -0.28125 -0.71875 -0.34375q-0.28125 -0.03125 -1.640625 -0.03125l-1.109375 0zm0 3.796875l0 2.546875l1.78125 0q1.046875 0 1.3125 -0.0625q0.4375 -0.078125 0.703125 -0.375q0.265625 -0.296875 0.265625 -0.8125q0 -0.421875 -0.203125 -0.71875q-0.203125 -0.3125 -0.609375 -0.4375q-0.390625 -0.140625 -1.703125 -0.140625l-1.546875 0z" fill-rule="nonzero"/><path fill="#000000" fill-opacity="0.0" d="m28.56168 134.82283l35.559055 0l0 35.559067l-35.559055 0z" fill-rule="evenodd"/><path fill="#000000" d="m48.606754 153.12283l1.859375 0.578125q-0.421875 1.5625 -1.421875 2.328125q-1.0 0.75 -2.53125 0.75q-1.90625 0 -3.140625 -1.296875q-1.21875 -1.296875 -1.21875 -3.546875q0 -2.375 1.234375 -3.6875q1.234375 -1.328125 3.234375 -1.328125q1.75 0 2.84375 1.03125q0.65625 0.609375 0.984375 1.765625l-1.90625 0.453125q-0.171875 -0.75 -0.71875 -1.171875q-0.53125 -0.4375 -1.296875 -0.4375q-1.0625 0 -1.734375 0.765625q-0.65625 0.765625 -0.65625 2.46875q0 1.8125 0.65625 2.578125q0.65625 0.765625 1.6875 0.765625q0.78125 0 1.328125 -0.484375q0.546875 -0.484375 0.796875 -1.53125z" fill-rule="nonzero"/><path fill="#000000" fill-opacity="0.0" d="m218.19817 134.82283l35.55905 0l0 35.559067l-35.55905 0z" fill-rule="evenodd"/><path fill="#000000" d="m232.13387 147.07596l3.515625 0q1.1875 0 1.8125 0.1875q0.84375 0.25 1.4375 0.890625q0.609375 0.625 0.921875 1.546875q0.3125 0.90625 0.3125 2.25q0 1.171875 -0.296875 2.015625q-0.359375 1.046875 -1.03125 1.6875q-0.5 0.5 -1.34375 0.765625q-0.640625 0.203125 -1.703125 0.203125l-3.625 0l0 -9.546875zm1.921875 1.625l0 6.3125l1.4375 0q0.8125 0 1.171875 -0.09375q0.46875 -0.109375 0.765625 -0.390625q0.3125 -0.28125 0.5 -0.921875q0.203125 -0.640625 0.203125 -1.75q0 -1.109375 -0.203125 -1.6875q-0.1875 -0.59375 -0.546875 -0.921875q-0.34375 -0.34375 -0.875 -0.453125q-0.40625 -0.09375 -1.59375 -0.09375l-0.859375 0z" fill-rule="nonzero"/></g></svg>